<svg width="84" height="84" viewBox="0 0 84 84" fill="none" xmlns="http://www.w3.org/2000/svg">
<mask id="mask0_9_161" style="mask-type:luminance" maskUnits="userSpaceOnUse" x="10" y="10" width="66" height="66">
<path d="M75.2501 10.5H10.5V75.2501H75.2501V10.5Z" fill="white"/>
</mask>
<g mask="url(#mask0_9_161)">
<path d="M75.2501 43.2219V42.5282C60.9126 42.0656 54.3682 41.7189 49.1187 36.6314C44.0312 31.3819 43.6614 24.8375 43.2219 10.5H42.5282C42.0656 24.8375 41.7189 31.3819 36.6314 36.6314C31.3819 41.7189 24.8375 42.0887 10.5 42.5282V43.2219C24.8375 43.6845 31.3819 44.0312 36.6314 49.1187C41.7189 54.3682 42.0887 60.9126 42.5282 75.2501H43.2219C43.6845 60.9126 44.0312 54.3682 49.1187 49.1187C54.3682 44.0312 60.9126 43.6614 75.2501 43.2219Z" fill="white"/>
</g>
</svg>
