<svg width="289" height="62" viewBox="0 0 289 62" fill="none" xmlns="http://www.w3.org/2000/svg">
<line x1="240.5" y1="10" x2="240.5" y2="49.3342" stroke="white" stroke-width="3"/>
<path d="M263.969 44.6484C263.969 46.8828 262.867 48 260.664 48H249.531C247.312 48 246.203 46.8828 246.203 44.6484V14.6953C246.203 12.4453 247.289 11.3203 249.461 11.3203H260.57C262.773 11.3203 263.875 12.4453 263.875 14.6953V22.4531H258.484V16.0312H251.594V27.0703H260.664C262.867 27.0703 263.969 28.1719 263.969 30.375V44.6484ZM258.602 43.2891V31.7344H251.594V43.2891H258.602ZM286.047 44.6484C286.047 46.8828 284.945 48 282.742 48H271.703C269.484 48 268.375 46.8828 268.375 44.6484V36.8672H273.766V43.2891H280.609V32.25H271.492C269.32 32.25 268.234 31.1484 268.234 28.9453V14.6953C268.234 12.4453 269.32 11.3203 271.492 11.3203H282.695C284.93 11.3203 286.047 12.4453 286.047 14.6953V44.6484ZM280.609 27.6094V16.0312H273.602V27.6094H280.609Z" fill="white"/>
<path d="M21.7031 37.0078H9.89062L6.82031 45H0.703125L13.1484 13.6406H18.3984L30.8438 45H24.7734L21.7031 37.0078ZM15.75 21.1875C14.6562 24.4688 13.6797 27.2109 12.8203 29.4141L11.7422 32.2031H19.8516L18.7734 29.4141C17.9141 27.1953 16.9375 24.4531 15.8438 21.1875H15.75Z" fill="white"/>
<path d="M80.7344 45.5859C79.0938 45.5859 77.6172 45.4219 76.3047 45.0938C74.9922 44.7812 73.8359 44.3281 72.8359 43.7344C71.8359 43.125 70.9844 42.3906 70.2812 41.5312C69.5781 40.6562 69.0156 39.6719 68.5938 38.5781C68.25 37.7031 68 36.7344 67.8438 35.6719C67.7031 34.6094 67.6328 33.4219 67.6328 32.1094V13.6406H73.375V31.5938C73.375 33.8125 73.6406 35.5469 74.1719 36.7969C74.7656 38.1875 75.6328 39.1953 76.7734 39.8203C77.9141 40.4297 79.2578 40.7344 80.8047 40.7344C82.3516 40.7344 83.6953 40.4297 84.8359 39.8203C85.9766 39.1953 86.8438 38.1875 87.4375 36.7969C87.9688 35.5469 88.2344 33.8125 88.2344 31.5938V13.6406H93.9766V32.1094C93.9766 33.4219 93.8984 34.6094 93.7422 35.6719C93.6016 36.7344 93.3594 37.7031 93.0156 38.5781C92.5938 39.6719 92.0234 40.6562 91.3047 41.5312C90.6016 42.3906 89.7344 43.125 88.7031 43.7344C87.6875 44.3281 86.5156 44.7812 85.1875 45.0938C83.8594 45.4219 82.375 45.5859 80.7344 45.5859ZM119.312 37.0078H107.5L104.43 45H98.3125L110.758 13.6406H116.008L128.453 45H122.383L119.312 37.0078ZM113.359 21.1875C112.266 24.4688 111.289 27.2109 110.43 29.4141L109.352 32.2031H117.461L116.383 29.4141C115.523 27.1953 114.547 24.4531 113.453 21.1875H113.359ZM156.109 23.0625C156.109 25.25 155.5 27.1094 154.281 28.6406C153.078 30.1562 151.211 31.2812 148.68 32.0156V32.1094L158.008 45H151.117L142.586 32.8594H138.648V45H132.906V13.6406H142.445C144.023 13.6406 145.492 13.7344 146.852 13.9219C148.211 14.0937 149.375 14.3594 150.344 14.7188C152.188 15.4219 153.609 16.4688 154.609 17.8594C155.609 19.2344 156.109 20.9688 156.109 23.0625ZM141.484 28.0547C142.797 28.0547 143.906 28 144.812 27.8906C145.734 27.7656 146.508 27.5859 147.133 27.3516C148.289 26.9141 149.086 26.3203 149.523 25.5703C149.977 24.8047 150.203 23.9297 150.203 22.9453C150.203 22.1016 150.023 21.3594 149.664 20.7188C149.32 20.0625 148.727 19.5469 147.883 19.1719C147.336 18.9219 146.648 18.7422 145.82 18.6328C144.992 18.5078 143.969 18.4453 142.75 18.4453H138.648V28.0547H141.484ZM163.047 45V13.6406H168.789V45H163.047ZM189.297 45.5859C187.656 45.5859 186.18 45.4219 184.867 45.0938C183.555 44.7812 182.398 44.3281 181.398 43.7344C180.398 43.125 179.547 42.3906 178.844 41.5312C178.141 40.6562 177.578 39.6719 177.156 38.5781C176.812 37.7031 176.562 36.7344 176.406 35.6719C176.266 34.6094 176.195 33.4219 176.195 32.1094V13.6406H181.938V31.5938C181.938 33.8125 182.203 35.5469 182.734 36.7969C183.328 38.1875 184.195 39.1953 185.336 39.8203C186.477 40.4297 187.82 40.7344 189.367 40.7344C190.914 40.7344 192.258 40.4297 193.398 39.8203C194.539 39.1953 195.406 38.1875 196 36.7969C196.531 35.5469 196.797 33.8125 196.797 31.5938V13.6406H202.539V32.1094C202.539 33.4219 202.461 34.6094 202.305 35.6719C202.164 36.7344 201.922 37.7031 201.578 38.5781C201.156 39.6719 200.586 40.6562 199.867 41.5312C199.164 42.3906 198.297 43.125 197.266 43.7344C196.25 44.3281 195.078 44.7812 193.75 45.0938C192.422 45.4219 190.938 45.5859 189.297 45.5859ZM225.344 36C225.344 35.2031 225.148 34.5625 224.758 34.0781C224.367 33.5781 223.836 33.1719 223.164 32.8594C222.492 32.5469 221.734 32.2969 220.891 32.1094C220.062 31.9062 219.188 31.7109 218.266 31.5234C217.047 31.2578 215.883 30.9453 214.773 30.5859C213.664 30.2109 212.688 29.7031 211.844 29.0625C211 28.4062 210.328 27.5781 209.828 26.5781C209.328 25.5781 209.078 24.3281 209.078 22.8281C209.078 21.1719 209.367 19.7344 209.945 18.5156C210.523 17.2812 211.305 16.2656 212.289 15.4688C213.289 14.6562 214.453 14.0547 215.781 13.6641C217.125 13.2578 218.633 13.0547 220.305 13.0547C221.977 13.0547 223.656 13.2188 225.344 13.5469C227.031 13.875 228.484 14.2969 229.703 14.8125V19.7344C228.078 19.0938 226.516 18.6328 225.016 18.3516C223.531 18.0547 222.133 17.9062 220.82 17.9062C218.93 17.9062 217.469 18.25 216.438 18.9375C215.422 19.625 214.914 20.6562 214.914 22.0312C214.914 22.8281 215.078 23.4844 215.406 24C215.75 24.5156 216.211 24.9453 216.789 25.2891C217.367 25.6172 218.031 25.8828 218.781 26.0859C219.531 26.2891 220.328 26.4766 221.172 26.6484C222.5 26.9297 223.766 27.2578 224.969 27.6328C226.188 27.9922 227.266 28.5 228.203 29.1562C229.141 29.8125 229.883 30.6719 230.43 31.7344C230.977 32.7812 231.25 34.125 231.25 35.7656C231.25 37.4531 230.938 38.9141 230.312 40.1484C229.688 41.3828 228.797 42.4062 227.641 43.2188C226.5 44.0156 225.109 44.6094 223.469 45C221.828 45.3906 220.031 45.5859 218.078 45.5859C216.375 45.5859 214.695 45.4141 213.039 45.0703C211.398 44.7422 210.031 44.2734 208.938 43.6641V38.8125C210.484 39.4844 211.992 39.9766 213.461 40.2891C214.93 40.5859 216.445 40.7344 218.008 40.7344C218.914 40.7344 219.805 40.6641 220.68 40.5234C221.555 40.3672 222.336 40.1094 223.023 39.75C223.727 39.3906 224.289 38.9062 224.711 38.2969C225.133 37.6719 225.344 36.9062 225.344 36Z" fill="white"/>
<path fill-rule="evenodd" clip-rule="evenodd" d="M45.008 43.0706C36.7168 43.0559 30 36.33 30 28.0353C30 19.7315 36.7315 13 45.0353 13C53.3391 13 60.0706 19.7315 60.0706 28.0353C60.0706 28.0444 60.0706 28.0535 60.0706 28.0626H54.6132C54.6132 28.0626 54.6132 28.0626 54.6132 28.0626C54.6132 22.7578 50.3128 18.4575 45.008 18.4575C39.7033 18.4575 35.4029 22.7578 35.4029 28.0626C35.4029 33.3674 39.7033 37.6677 45.008 37.6677L45.008 43.0706Z" fill="#F5F5F5"/>
<rect x="45.008" y="28.008" width="9.49599" height="9.49599" fill="#F5F5F5"/>
<rect x="54.504" y="37.504" width="9.49599" height="9.49599" fill="#F5F5F5" fill-opacity="0.5"/>
</svg>
