<svg width="276" height="397" viewBox="0 0 276 397" fill="none" xmlns="http://www.w3.org/2000/svg">
<path fill-rule="evenodd" clip-rule="evenodd" d="M154.376 36.0669C151.956 36.8688 150.645 39.4783 151.448 41.8955C152.251 44.3124 154.864 45.6218 157.284 44.8199C169.667 40.7163 178.462 41.2935 196.654 44.0972C198.443 44.3728 200.229 43.5793 201.221 42.0674C202.213 40.5557 202.229 38.6043 201.262 37.0763C192.733 23.5986 183.946 15.7422 161.515 1.80551C159.35 0.460347 156.503 1.12284 155.156 3.28523C153.809 5.44762 154.472 8.29105 156.637 9.63622C172.767 19.6581 181.062 26.0792 187.292 33.4749C174.922 32.0122 165.873 32.2572 154.376 36.0669ZM184.171 55.7094C184.469 53.1802 186.764 51.3711 189.296 51.6686C201.326 53.082 209.627 56.6892 220.213 63.2482C217.705 53.9126 212.916 44.5867 202.554 28.6837C201.164 26.5492 201.769 23.6928 203.906 22.304C206.045 20.9149 208.903 21.5195 210.294 23.6541C224.702 45.7694 229.33 56.6038 231.337 72.4212C231.566 74.2144 230.724 75.9751 229.184 76.9248C227.644 77.8745 225.69 77.838 224.187 76.8317C208.898 66.5943 201.175 62.3502 188.217 60.8276C185.685 60.5301 183.873 58.2386 184.171 55.7094ZM216.7 79.249C214.574 77.842 211.71 78.4225 210.301 80.5451C208.894 82.6678 209.474 85.5293 211.599 86.9361C222.475 94.1351 227.448 101.403 236.467 117.43C237.354 119.006 239.08 119.919 240.885 119.765C242.687 119.612 244.235 118.42 244.842 116.717C250.196 101.697 250.962 89.9427 248.098 63.7136C247.821 61.1819 245.542 59.3535 243.007 59.6298C240.473 59.9059 238.641 62.182 238.918 64.7137C240.979 83.575 241.038 94.056 239.058 103.517C232.576 92.8931 226.798 85.9325 216.7 79.249ZM221.819 128.152C224.153 127.129 226.877 128.19 227.9 130.522C232.768 141.601 233.854 150.577 233.546 163.015C240.338 156.131 245.969 147.286 254.46 130.314C255.599 128.035 258.373 127.112 260.654 128.25C262.934 129.388 263.86 132.158 262.72 134.436C250.912 158.038 243.897 167.506 231.254 177.241C229.821 178.344 227.873 178.51 226.273 177.664C224.674 176.818 223.718 175.117 223.827 173.312C224.929 154.96 224.687 146.16 219.446 134.227C218.421 131.895 219.483 129.175 221.819 128.152ZM114.819 44.5081C113.059 42.6661 113.126 39.7473 114.971 37.9888C123.733 29.6349 131.808 25.5489 143.616 21.5881C134.818 17.5636 124.571 15.3014 105.699 13.1306C103.166 12.8392 101.349 10.5521 101.641 8.0222C101.933 5.49227 104.223 3.67756 106.756 3.96895C133 6.98769 144.306 10.337 157.786 18.8781C159.314 19.8464 160.135 21.6173 159.885 23.4075C159.636 25.1977 158.362 26.6773 156.628 27.1921C138.982 32.427 130.784 35.6614 121.347 44.6596C119.502 46.4181 116.58 46.3502 114.819 44.5081ZM82.2067 56.1145C81.2832 58.4883 82.4614 61.1603 84.8379 62.0826C87.2147 63.005 89.89 61.8284 90.8135 59.4546C95.5387 47.3082 101.589 40.9065 115.346 28.6906C116.698 27.4895 117.224 25.61 116.689 23.883C116.155 22.1561 114.66 20.9002 112.864 20.6707C97.03 18.6463 85.3683 20.4027 60.3202 28.7863C57.9027 29.5954 56.5994 32.209 57.4098 34.6236C58.2199 37.0383 60.8365 38.3398 63.2543 37.5306C81.2662 31.502 91.5064 29.2099 101.183 29.1273C92.1718 37.7163 86.5938 44.8377 82.2067 56.1145ZM63.2977 90.7677C60.7547 90.954 58.542 89.0459 58.3557 86.5061C57.47 74.4403 59.4463 65.6169 63.8929 53.9954C55.1887 58.2197 46.9258 64.681 33.2499 77.8496C31.4145 79.6171 28.4917 79.5638 26.722 77.7305C24.9523 75.8971 25.0057 72.9781 26.8413 71.2105C45.8591 52.8978 55.636 46.3105 70.807 41.3488C72.527 40.7862 74.4173 41.2793 75.6422 42.6098C76.8673 43.9402 77.2008 45.8631 76.4956 47.5277C69.3228 64.4595 66.6107 72.8357 67.5645 85.8318C67.751 88.3718 65.8406 90.5816 63.2977 90.7677ZM47.7891 126.49C48.9736 128.745 51.7642 129.614 54.0222 128.431C56.2801 127.248 57.1505 124.461 55.966 122.206C49.9051 110.666 49.0503 101.904 48.8726 83.5198C48.8552 81.7122 47.7819 80.0818 46.1276 79.349C44.4732 78.6163 42.5426 78.9166 41.1897 80.1172C29.2555 90.7067 22.9172 100.64 12.7822 125.005C11.804 127.357 12.9198 130.056 15.2745 131.033C17.6292 132.01 20.331 130.895 21.3092 128.544C28.5973 111.022 33.5973 101.807 39.8948 94.4682C40.454 106.897 42.1622 115.776 47.7891 126.49ZM65.4652 163.016C63.9431 165.06 61.0508 165.483 59.0052 163.963C49.2872 156.741 43.8966 149.477 38.0025 138.517C35.5094 147.856 34.9992 158.325 36.0293 177.27C36.1674 179.813 34.2156 181.987 31.6695 182.125C29.1235 182.263 26.9475 180.313 26.8092 177.77C25.3769 151.424 26.7819 139.73 32.9458 125.022C33.6446 123.354 35.2544 122.249 37.0632 122.193C38.8721 122.138 40.5467 123.143 41.3463 124.765C49.4794 141.258 54.0499 148.785 64.5172 156.564C66.5628 158.085 66.9872 160.973 65.4652 163.016ZM82.9508 194.963C85.4318 195.55 87.9197 194.017 88.5075 191.538C89.0954 189.061 87.5605 186.577 85.0795 185.988C72.3837 182.985 65.2029 177.88 51.1961 165.95C49.8192 164.778 47.8829 164.516 46.2438 165.283C44.6047 166.049 43.5648 167.701 43.584 169.508C43.7541 185.452 47.0999 196.747 58.8589 220.372C59.9939 222.654 62.7649 223.584 65.0482 222.449C67.3314 221.315 68.2622 218.548 67.1272 216.269C58.6715 199.277 54.99 189.463 53.5771 179.901C63.3344 187.635 71.1639 192.173 82.9508 194.963ZM120.441 208.147C121.017 210.628 119.471 213.105 116.987 213.681C105.188 216.416 96.1544 215.828 83.972 213.233C89.4937 221.169 97.1601 228.328 112.297 239.791C114.328 241.329 114.726 244.223 113.186 246.252C111.645 248.281 108.749 248.677 106.717 247.139C85.668 231.197 77.6437 222.565 70.395 208.36C69.5732 206.749 69.7693 204.807 70.8965 203.394C72.0238 201.98 73.8744 201.354 75.6298 201.793C93.4863 206.259 102.191 207.644 114.9 204.698C117.384 204.121 119.865 205.667 120.441 208.147ZM155.221 213.607C157.19 211.988 157.472 209.083 155.852 207.116C154.231 205.15 151.322 204.868 149.353 206.487C139.279 214.767 130.866 217.392 112.883 221.319C111.115 221.704 109.736 223.087 109.355 224.854C108.975 226.621 109.664 228.447 111.116 229.525C123.932 239.033 134.962 243.201 160.912 248.137C163.417 248.615 165.834 246.971 166.311 244.47C166.788 241.969 165.144 239.555 162.64 239.079C143.979 235.528 133.926 232.522 125.447 227.863C137.515 224.779 145.869 221.295 155.221 213.607ZM190.903 190.077C193.18 191.225 194.096 193.997 192.949 196.271C187.497 207.076 181.26 213.629 171.464 221.313C181.104 222.16 191.518 220.859 210.026 216.588C212.51 216.014 214.99 217.56 215.564 220.042C216.139 222.523 214.589 225 212.105 225.572C186.367 231.515 174.59 232.144 159.024 228.61C157.259 228.209 155.891 226.815 155.526 225.046C155.16 223.276 155.863 221.455 157.325 220.389C172.193 209.549 178.831 203.758 184.703 192.121C185.85 189.847 188.626 188.932 190.903 190.077ZM216.523 168.859C216.538 166.313 214.482 164.236 211.932 164.221C209.383 164.206 207.304 166.259 207.289 168.805C207.212 181.836 203.847 189.972 195.357 206.286C194.523 207.889 194.703 209.833 195.819 211.255C196.935 212.679 198.781 213.319 200.539 212.893C216.056 209.143 226.323 203.348 246.73 186.591C248.698 184.976 248.982 182.069 247.363 180.102C245.743 178.135 242.835 177.851 240.864 179.468C226.19 191.518 217.442 197.308 208.432 200.832C213.784 189.598 216.451 180.957 216.523 168.859Z" fill="#989494"/>
<path d="M129.44 155.92L129.312 170H74.016V156.944C87.6693 143.376 97.6107 132.453 103.84 124.176C110.069 115.899 113.184 108.688 113.184 102.544C113.184 96.3147 108.661 93.2 99.616 93.2C93.1307 93.2 86.944 94.0533 81.056 95.76L78.112 96.528L75.68 83.344C82.5067 80.528 90.6133 79.12 100 79.12C109.387 79.12 116.597 81.0827 121.632 85.008C126.752 88.848 129.312 94.3093 129.312 101.392C129.312 108.475 126.581 116.283 121.12 124.816C115.744 133.349 107.467 143.717 96.288 155.92H129.44ZM167.381 157.2C179.498 157.2 185.557 152.08 185.557 141.84C185.557 131.6 179.498 126.48 167.381 126.48L146.645 126.352L149.717 80.4H197.973L197.333 93.84H164.309L162.901 112.528C164.778 112.443 166.613 112.4 168.405 112.4C178.218 112.4 186.069 114.917 191.957 119.952C197.93 124.901 200.917 131.899 200.917 140.944C200.917 149.989 198.101 157.243 192.469 162.704C186.837 168.08 178.688 170.768 168.021 170.768C163.584 170.768 159.189 170.213 154.837 169.104C150.485 167.995 147.242 166.843 145.109 165.648L141.909 163.984L146.773 152.08C154.282 155.493 161.152 157.2 167.381 157.2Z" fill="#3FABA9"/>
<path d="M12.2727 304L6.40909 296.176H4.55114V304H1.91761V286.545H4.55114V293.918H5.41193L12.0085 286.545H15.2216L8.24148 294.361L15.4858 304H12.2727ZM17.7209 308.909V290.909H20.2095V293.031H20.4226C20.5703 292.759 20.7834 292.443 21.0618 292.085C21.3402 291.727 21.7266 291.415 22.2209 291.148C22.7152 290.875 23.3686 290.739 24.1811 290.739C25.2379 290.739 26.1811 291.006 27.0107 291.54C27.8402 292.074 28.4908 292.844 28.9624 293.849C29.4396 294.855 29.6783 296.065 29.6783 297.48C29.6783 298.895 29.4425 300.108 28.9709 301.119C28.4993 302.125 27.8516 302.901 27.0277 303.446C26.2038 303.986 25.2635 304.256 24.2067 304.256C23.4112 304.256 22.7607 304.122 22.255 303.855C21.755 303.588 21.3629 303.276 21.0788 302.918C20.7947 302.56 20.576 302.241 20.4226 301.963H20.2692V308.909H17.7209ZM20.218 297.455C20.218 298.375 20.3516 299.182 20.6186 299.875C20.8857 300.568 21.272 301.111 21.7777 301.503C22.2834 301.889 22.9027 302.082 23.6357 302.082C24.397 302.082 25.0334 301.881 25.5447 301.477C26.0561 301.068 26.4425 300.514 26.7038 299.815C26.9709 299.116 27.1044 298.33 27.1044 297.455C27.1044 296.591 26.9737 295.815 26.7124 295.128C26.4567 294.44 26.0703 293.898 25.5533 293.5C25.0419 293.102 24.4027 292.903 23.6357 292.903C22.897 292.903 22.272 293.094 21.7607 293.474C21.255 293.855 20.8714 294.386 20.6101 295.068C20.3487 295.75 20.218 296.545 20.218 297.455ZM33.6989 308.909C33.3182 308.909 32.9716 308.878 32.6591 308.815C32.3466 308.759 32.1136 308.696 31.9602 308.628L32.5739 306.54C33.0398 306.665 33.4545 306.719 33.8182 306.702C34.1818 306.685 34.5028 306.548 34.7812 306.293C35.0653 306.037 35.3153 305.619 35.5312 305.04L35.8466 304.17L31.0568 290.909H33.7841L37.0994 301.068H37.2358L40.5511 290.909H43.2869L37.892 305.747C37.642 306.429 37.3239 307.006 36.9375 307.477C36.5511 307.955 36.0909 308.313 35.5568 308.551C35.0227 308.79 34.4034 308.909 33.6989 308.909ZM45.6818 304V290.909H56.3608V304H53.8636V293.108H48.1619V304H45.6818ZM68.6399 296.355V298.562H61.549V296.355H68.6399ZM62.2649 290.909V304H59.7678V290.909H62.2649ZM70.4212 290.909V304H67.9325V290.909H70.4212ZM79.4723 304.264C78.1825 304.264 77.0717 303.989 76.1399 303.438C75.2138 302.881 74.4979 302.099 73.9922 301.094C73.4922 300.082 73.2422 298.898 73.2422 297.54C73.2422 296.199 73.4922 295.017 73.9922 293.994C74.4979 292.972 75.2024 292.173 76.1058 291.599C77.0149 291.026 78.0774 290.739 79.2933 290.739C80.032 290.739 80.7479 290.861 81.4411 291.105C82.1342 291.349 82.7564 291.733 83.3075 292.256C83.8587 292.778 84.2933 293.457 84.6115 294.293C84.9297 295.122 85.0888 296.131 85.0888 297.318V298.222H74.6825V296.312H82.5916C82.5916 295.642 82.4553 295.048 82.1825 294.531C81.9098 294.009 81.5263 293.597 81.032 293.295C80.5433 292.994 79.9695 292.844 79.3104 292.844C78.5945 292.844 77.9695 293.02 77.4354 293.372C76.907 293.719 76.4979 294.173 76.2081 294.736C75.924 295.293 75.782 295.898 75.782 296.551V298.043C75.782 298.918 75.9354 299.662 76.2422 300.276C76.5547 300.889 76.9893 301.358 77.5462 301.682C78.103 302 78.7536 302.159 79.4979 302.159C79.9808 302.159 80.4212 302.091 80.8189 301.955C81.2166 301.812 81.5604 301.602 81.8501 301.324C82.1399 301.045 82.3615 300.702 82.5149 300.293L84.9268 300.727C84.7337 301.437 84.3871 302.06 83.8871 302.594C83.3928 303.122 82.7706 303.534 82.0206 303.83C81.2763 304.119 80.4268 304.264 79.4723 304.264ZM90.4134 300.429L96.1832 290.909H98.9276V304H96.4304V294.472L90.6861 304H87.9162V290.909H90.4134V300.429ZM95.0923 286.477H97.1889C97.1889 287.437 96.848 288.219 96.1662 288.821C95.4901 289.418 94.5753 289.716 93.4219 289.716C92.2741 289.716 91.3622 289.418 90.6861 288.821C90.0099 288.219 89.6719 287.437 89.6719 286.477H91.7599C91.7599 286.903 91.8849 287.281 92.1349 287.611C92.3849 287.935 92.8139 288.097 93.4219 288.097C94.0185 288.097 94.4446 287.935 94.7003 287.611C94.9616 287.287 95.0923 286.909 95.0923 286.477ZM102.354 290.909H104.851V301.793H109.376V290.909H111.874V301.793H116.399V290.909H118.896V304H102.354V290.909ZM124.796 300.429L130.566 290.909H133.31V304H130.813V294.472L125.069 304H122.299V290.909H124.796V300.429ZM142.379 304.264C141.089 304.264 139.978 303.989 139.046 303.438C138.12 302.881 137.404 302.099 136.898 301.094C136.398 300.082 136.148 298.898 136.148 297.54C136.148 296.199 136.398 295.017 136.898 293.994C137.404 292.972 138.109 292.173 139.012 291.599C139.921 291.026 140.984 290.739 142.2 290.739C142.938 290.739 143.654 290.861 144.347 291.105C145.04 291.349 145.663 291.733 146.214 292.256C146.765 292.778 147.2 293.457 147.518 294.293C147.836 295.122 147.995 296.131 147.995 297.318V298.222H137.589V296.312H145.498C145.498 295.642 145.362 295.048 145.089 294.531C144.816 294.009 144.433 293.597 143.938 293.295C143.45 292.994 142.876 292.844 142.217 292.844C141.501 292.844 140.876 293.02 140.342 293.372C139.813 293.719 139.404 294.173 139.114 294.736C138.83 295.293 138.688 295.898 138.688 296.551V298.043C138.688 298.918 138.842 299.662 139.148 300.276C139.461 300.889 139.896 301.358 140.452 301.682C141.009 302 141.66 302.159 142.404 302.159C142.887 302.159 143.327 302.091 143.725 301.955C144.123 301.812 144.467 301.602 144.756 301.324C145.046 301.045 145.268 300.702 145.421 300.293L147.833 300.727C147.64 301.437 147.293 302.06 146.793 302.594C146.299 303.122 145.677 303.534 144.927 303.83C144.183 304.119 143.333 304.264 142.379 304.264ZM4.55114 315.545V333H1.91761V315.545H4.55114ZM7.52557 317.812V315.545H21.0341V317.812H15.5881V333H12.9631V317.812H7.52557ZM30.7607 324.52V326.727H23.022V324.52H30.7607ZM33.2599 333V319.909H35.8082V325.398H37.0355L41.3565 319.909H44.5099L39.4389 326.276L44.5696 333H41.4077L37.4616 327.767H35.8082V333H33.2599ZM51.5241 333.264C50.2969 333.264 49.2259 332.983 48.3111 332.42C47.3963 331.858 46.6861 331.071 46.1804 330.06C45.6747 329.048 45.4219 327.866 45.4219 326.514C45.4219 325.156 45.6747 323.969 46.1804 322.952C46.6861 321.935 47.3963 321.145 48.3111 320.582C49.2259 320.02 50.2969 319.739 51.5241 319.739C52.7514 319.739 53.8224 320.02 54.7372 320.582C55.652 321.145 56.3622 321.935 56.8679 322.952C57.3736 323.969 57.6264 325.156 57.6264 326.514C57.6264 327.866 57.3736 329.048 56.8679 330.06C56.3622 331.071 55.652 331.858 54.7372 332.42C53.8224 332.983 52.7514 333.264 51.5241 333.264ZM51.5327 331.125C52.3281 331.125 52.9872 330.915 53.5099 330.494C54.0327 330.074 54.419 329.514 54.669 328.815C54.9247 328.116 55.0526 327.347 55.0526 326.506C55.0526 325.67 54.9247 324.903 54.669 324.205C54.419 323.5 54.0327 322.935 53.5099 322.509C52.9872 322.082 52.3281 321.869 51.5327 321.869C50.7315 321.869 50.0668 322.082 49.5384 322.509C49.0156 322.935 48.6264 323.5 48.3707 324.205C48.1207 324.903 47.9957 325.67 47.9957 326.506C47.9957 327.347 48.1207 328.116 48.3707 328.815C48.6264 329.514 49.0156 330.074 49.5384 330.494C50.0668 330.915 50.7315 331.125 51.5327 331.125ZM67.8175 329.847L72.0447 319.909H74.2436L68.7635 333H66.8714L61.5021 319.909H63.6754L67.8175 329.847ZM62.968 319.909V333H60.4709V319.909H62.968ZM72.7351 333V319.909H75.2152V333H72.7351ZM78.6115 333V319.909H89.2905V333H86.7933V322.108H81.0916V333H78.6115ZM96.5071 333.29C95.6776 333.29 94.9276 333.136 94.2571 332.83C93.5866 332.517 93.0554 332.065 92.6634 331.474C92.277 330.884 92.0838 330.159 92.0838 329.301C92.0838 328.562 92.2259 327.955 92.5099 327.477C92.794 327 93.1776 326.622 93.6605 326.344C94.1435 326.065 94.6832 325.855 95.2798 325.713C95.8764 325.571 96.4844 325.463 97.1037 325.389C97.8878 325.298 98.5241 325.224 99.0128 325.168C99.5014 325.105 99.8565 325.006 100.078 324.869C100.3 324.733 100.411 324.511 100.411 324.205V324.145C100.411 323.401 100.2 322.824 99.7798 322.415C99.3651 322.006 98.7457 321.801 97.9219 321.801C97.0639 321.801 96.3878 321.991 95.8935 322.372C95.4048 322.747 95.0668 323.165 94.8793 323.625L92.4844 323.08C92.7685 322.284 93.1832 321.642 93.7287 321.153C94.2798 320.659 94.9134 320.301 95.6293 320.08C96.3452 319.852 97.098 319.739 97.8878 319.739C98.4105 319.739 98.9645 319.801 99.5497 319.926C100.141 320.045 100.692 320.267 101.203 320.591C101.72 320.915 102.143 321.378 102.473 321.98C102.803 322.577 102.967 323.352 102.967 324.307V333H100.479V331.21H100.376C100.212 331.54 99.9645 331.864 99.6349 332.182C99.3054 332.5 98.8821 332.764 98.3651 332.974C97.848 333.185 97.2287 333.29 96.5071 333.29ZM97.0611 331.244C97.7656 331.244 98.3679 331.105 98.8679 330.827C99.3736 330.548 99.7571 330.185 100.018 329.736C100.286 329.281 100.419 328.795 100.419 328.278V326.591C100.328 326.682 100.152 326.767 99.8906 326.847C99.6349 326.92 99.3423 326.986 99.0128 327.043C98.6832 327.094 98.3622 327.142 98.0497 327.188C97.7372 327.227 97.4759 327.261 97.2656 327.29C96.7713 327.352 96.3196 327.457 95.9105 327.605C95.5071 327.753 95.1832 327.966 94.9389 328.244C94.7003 328.517 94.581 328.881 94.581 329.335C94.581 329.966 94.8139 330.443 95.2798 330.767C95.7457 331.085 96.3395 331.244 97.0611 331.244ZM115.234 325.355V327.562H108.143V325.355H115.234ZM108.859 319.909V333H106.362V319.909H108.859ZM117.015 319.909V333H114.526V319.909H117.015ZM122.921 329.429L128.691 319.909H131.435V333H128.938V323.472L123.194 333H120.424V319.909H122.921V329.429ZM137.359 329.429L143.129 319.909H145.873V333H143.376V323.472L137.631 333H134.862V319.909H137.359V329.429ZM155.651 333V319.909H161.08C162.557 319.909 163.727 320.224 164.591 320.855C165.455 321.48 165.886 322.33 165.886 323.403C165.886 324.17 165.642 324.778 165.153 325.227C164.665 325.676 164.017 325.977 163.21 326.131C163.795 326.199 164.332 326.375 164.821 326.659C165.31 326.937 165.702 327.312 165.997 327.784C166.298 328.256 166.449 328.818 166.449 329.472C166.449 330.165 166.27 330.778 165.912 331.312C165.554 331.841 165.034 332.256 164.352 332.557C163.676 332.852 162.861 333 161.906 333H155.651ZM158.045 330.869H161.906C162.537 330.869 163.031 330.719 163.389 330.418C163.747 330.116 163.926 329.707 163.926 329.19C163.926 328.582 163.747 328.105 163.389 327.759C163.031 327.406 162.537 327.23 161.906 327.23H158.045V330.869ZM158.045 325.364H161.105C161.582 325.364 161.991 325.295 162.332 325.159C162.679 325.023 162.943 324.83 163.125 324.58C163.312 324.324 163.406 324.023 163.406 323.676C163.406 323.17 163.199 322.776 162.784 322.491C162.369 322.207 161.801 322.065 161.08 322.065H158.045V325.364ZM175.8 333V315.545H182.022C183.38 315.545 184.505 315.793 185.397 316.287C186.289 316.781 186.957 317.457 187.4 318.315C187.843 319.168 188.065 320.128 188.065 321.196C188.065 322.27 187.84 323.236 187.391 324.094C186.948 324.946 186.278 325.622 185.38 326.122C184.488 326.616 183.366 326.864 182.013 326.864H177.735V324.631H181.775C182.633 324.631 183.329 324.483 183.863 324.188C184.397 323.886 184.789 323.477 185.039 322.96C185.289 322.443 185.414 321.855 185.414 321.196C185.414 320.537 185.289 319.952 185.039 319.44C184.789 318.929 184.394 318.528 183.854 318.239C183.32 317.949 182.616 317.804 181.741 317.804H178.434V333H175.8ZM196.298 333.264C195.07 333.264 193.999 332.983 193.085 332.42C192.17 331.858 191.46 331.071 190.954 330.06C190.448 329.048 190.195 327.866 190.195 326.514C190.195 325.156 190.448 323.969 190.954 322.952C191.46 321.935 192.17 321.145 193.085 320.582C193.999 320.02 195.07 319.739 196.298 319.739C197.525 319.739 198.596 320.02 199.511 320.582C200.425 321.145 201.136 321.935 201.641 322.952C202.147 323.969 202.4 325.156 202.4 326.514C202.4 327.866 202.147 329.048 201.641 330.06C201.136 331.071 200.425 331.858 199.511 332.42C198.596 332.983 197.525 333.264 196.298 333.264ZM196.306 331.125C197.102 331.125 197.761 330.915 198.283 330.494C198.806 330.074 199.192 329.514 199.442 328.815C199.698 328.116 199.826 327.347 199.826 326.506C199.826 325.67 199.698 324.903 199.442 324.205C199.192 323.5 198.806 322.935 198.283 322.509C197.761 322.082 197.102 321.869 196.306 321.869C195.505 321.869 194.84 322.082 194.312 322.509C193.789 322.935 193.4 323.5 193.144 324.205C192.894 324.903 192.769 325.67 192.769 326.506C192.769 327.347 192.894 328.116 193.144 328.815C193.4 329.514 193.789 330.074 194.312 330.494C194.84 330.915 195.505 331.125 196.306 331.125ZM210.759 333.264C209.491 333.264 208.401 332.977 207.486 332.403C206.577 331.824 205.878 331.026 205.389 330.009C204.901 328.991 204.656 327.827 204.656 326.514C204.656 325.185 204.906 324.011 205.406 322.994C205.906 321.972 206.611 321.173 207.52 320.599C208.429 320.026 209.5 319.739 210.733 319.739C211.727 319.739 212.614 319.923 213.392 320.293C214.17 320.656 214.798 321.168 215.276 321.827C215.759 322.486 216.045 323.256 216.136 324.136H213.656C213.52 323.523 213.207 322.994 212.719 322.551C212.236 322.108 211.588 321.886 210.776 321.886C210.065 321.886 209.443 322.074 208.909 322.449C208.381 322.818 207.969 323.347 207.673 324.034C207.378 324.716 207.23 325.523 207.23 326.455C207.23 327.409 207.375 328.233 207.665 328.926C207.955 329.619 208.364 330.156 208.892 330.537C209.426 330.918 210.054 331.108 210.776 331.108C211.259 331.108 211.696 331.02 212.088 330.844C212.486 330.662 212.818 330.403 213.085 330.068C213.358 329.733 213.548 329.33 213.656 328.858H216.136C216.045 329.705 215.77 330.46 215.31 331.125C214.849 331.79 214.233 332.312 213.46 332.693C212.693 333.074 211.793 333.264 210.759 333.264ZM224.376 333.264C223.109 333.264 222.018 332.977 221.103 332.403C220.194 331.824 219.495 331.026 219.006 330.009C218.518 328.991 218.273 327.827 218.273 326.514C218.273 325.185 218.523 324.011 219.023 322.994C219.523 321.972 220.228 321.173 221.137 320.599C222.046 320.026 223.117 319.739 224.35 319.739C225.344 319.739 226.231 319.923 227.009 320.293C227.788 320.656 228.415 321.168 228.893 321.827C229.376 322.486 229.663 323.256 229.754 324.136H227.273C227.137 323.523 226.825 322.994 226.336 322.551C225.853 322.108 225.205 321.886 224.393 321.886C223.683 321.886 223.06 322.074 222.526 322.449C221.998 322.818 221.586 323.347 221.29 324.034C220.995 324.716 220.847 325.523 220.847 326.455C220.847 327.409 220.992 328.233 221.282 328.926C221.572 329.619 221.981 330.156 222.509 330.537C223.043 330.918 223.671 331.108 224.393 331.108C224.876 331.108 225.313 331.02 225.705 330.844C226.103 330.662 226.435 330.403 226.702 330.068C226.975 329.733 227.165 329.33 227.273 328.858H229.754C229.663 329.705 229.387 330.46 228.927 331.125C228.467 331.79 227.85 332.312 227.077 332.693C226.31 333.074 225.41 333.264 224.376 333.264ZM234.976 329.429L240.746 319.909H243.49V333H240.993V323.472L235.249 333H232.479V319.909H234.976V329.429ZM249.413 329.429L255.183 319.909H257.928V333H255.43V323.472L249.686 333H246.916V319.909H249.413V329.429ZM1.67898 362V360.091L7.58523 353.972C8.21591 353.307 8.7358 352.724 9.14489 352.224C9.55966 351.719 9.86932 351.239 10.0739 350.784C10.2784 350.33 10.3807 349.847 10.3807 349.335C10.3807 348.756 10.2443 348.256 9.97159 347.835C9.69886 347.409 9.3267 347.082 8.85511 346.855C8.38352 346.622 7.85227 346.506 7.26136 346.506C6.63636 346.506 6.09091 346.634 5.625 346.889C5.15909 347.145 4.80114 347.506 4.55114 347.972C4.30114 348.437 4.17614 348.983 4.17614 349.608H1.66193C1.66193 348.545 1.90625 347.616 2.39489 346.821C2.88352 346.026 3.55398 345.409 4.40625 344.972C5.25852 344.528 6.22727 344.307 7.3125 344.307C8.40909 344.307 9.375 344.526 10.2102 344.963C11.0511 345.395 11.7074 345.986 12.179 346.736C12.6506 347.48 12.8864 348.321 12.8864 349.259C12.8864 349.906 12.7642 350.54 12.5199 351.159C12.2813 351.778 11.8636 352.469 11.267 353.23C10.6705 353.986 9.84091 354.903 8.77841 355.983L5.30966 359.614V359.741H13.1676V362H1.67898ZM22.4744 362.29C21.1278 362.284 19.9773 361.929 19.0227 361.224C18.0682 360.52 17.3381 359.494 16.8324 358.148C16.3267 356.801 16.0739 355.179 16.0739 353.281C16.0739 351.389 16.3267 349.773 16.8324 348.432C17.3438 347.091 18.0767 346.068 19.0312 345.364C19.9915 344.659 21.1392 344.307 22.4744 344.307C23.8097 344.307 24.9545 344.662 25.9091 345.372C26.8636 346.077 27.5938 347.099 28.0994 348.44C28.6108 349.776 28.8665 351.389 28.8665 353.281C28.8665 355.185 28.6136 356.81 28.108 358.156C27.6023 359.497 26.8722 360.523 25.9176 361.233C24.9631 361.938 23.8153 362.29 22.4744 362.29ZM22.4744 360.014C23.6563 360.014 24.5795 359.438 25.2443 358.284C25.9148 357.131 26.25 355.463 26.25 353.281C26.25 351.832 26.0966 350.608 25.7898 349.608C25.4886 348.602 25.054 347.841 24.4858 347.324C23.9233 346.801 23.2528 346.54 22.4744 346.54C21.2983 346.54 20.375 347.119 19.7045 348.278C19.0341 349.437 18.696 351.105 18.6903 353.281C18.6903 354.736 18.8409 355.966 19.142 356.972C19.4489 357.972 19.8835 358.73 20.446 359.247C21.0085 359.759 21.6847 360.014 22.4744 360.014ZM31.8899 362V360.091L37.7962 353.972C38.4268 353.307 38.9467 352.724 39.3558 352.224C39.7706 351.719 40.0803 351.239 40.2848 350.784C40.4893 350.33 40.5916 349.847 40.5916 349.335C40.5916 348.756 40.4553 348.256 40.1825 347.835C39.9098 347.409 39.5376 347.082 39.0661 346.855C38.5945 346.622 38.0632 346.506 37.4723 346.506C36.8473 346.506 36.3018 346.634 35.8359 346.889C35.37 347.145 35.0121 347.506 34.7621 347.972C34.5121 348.437 34.3871 348.983 34.3871 349.608H31.8729C31.8729 348.545 32.1172 347.616 32.6058 346.821C33.0945 346.026 33.7649 345.409 34.6172 344.972C35.4695 344.528 36.4382 344.307 37.5234 344.307C38.62 344.307 39.5859 344.526 40.4212 344.963C41.2621 345.395 41.9183 345.986 42.3899 346.736C42.8615 347.48 43.0973 348.321 43.0973 349.259C43.0973 349.906 42.9751 350.54 42.7308 351.159C42.4922 351.778 42.0746 352.469 41.478 353.23C40.8814 353.986 40.0518 354.903 38.9893 355.983L35.5206 359.614V359.741H43.3786V362H31.8899ZM53.2308 344.545V362H50.5888V347.188H50.4865L46.3104 349.915V347.392L50.6655 344.545H53.2308Z" fill="black"/>
</svg>
