<svg width="276" height="397" viewBox="0 0 276 397" fill="none" xmlns="http://www.w3.org/2000/svg">
<path fill-rule="evenodd" clip-rule="evenodd" d="M154.376 36.0669C151.956 36.8688 150.645 39.4783 151.448 41.8955C152.251 44.3124 154.864 45.6218 157.284 44.8199C169.667 40.7163 178.462 41.2935 196.654 44.0972C198.443 44.3728 200.229 43.5793 201.221 42.0674C202.213 40.5557 202.229 38.6043 201.262 37.0763C192.733 23.5986 183.946 15.7422 161.515 1.80551C159.35 0.460347 156.503 1.12284 155.156 3.28523C153.809 5.44762 154.472 8.29105 156.637 9.63622C172.767 19.6581 181.062 26.0792 187.292 33.4749C174.922 32.0122 165.873 32.2572 154.376 36.0669ZM184.171 55.7094C184.469 53.1802 186.764 51.3711 189.296 51.6686C201.326 53.082 209.627 56.6892 220.213 63.2482C217.705 53.9126 212.916 44.5867 202.554 28.6837C201.164 26.5492 201.769 23.6928 203.906 22.304C206.045 20.9149 208.903 21.5195 210.294 23.6541C224.702 45.7694 229.33 56.6038 231.337 72.4212C231.566 74.2144 230.724 75.9751 229.184 76.9248C227.644 77.8745 225.69 77.838 224.187 76.8317C208.898 66.5943 201.175 62.3502 188.217 60.8276C185.685 60.5301 183.873 58.2386 184.171 55.7094ZM216.7 79.249C214.575 77.842 211.71 78.4225 210.301 80.5451C208.894 82.6678 209.474 85.5293 211.599 86.9361C222.475 94.1351 227.448 101.403 236.467 117.43C237.354 119.006 239.08 119.919 240.885 119.765C242.687 119.612 244.235 118.42 244.842 116.717C250.196 101.697 250.962 89.9427 248.098 63.7136C247.821 61.1819 245.542 59.3535 243.007 59.6298C240.473 59.9059 238.641 62.182 238.918 64.7137C240.979 83.575 241.038 94.056 239.058 103.517C232.576 92.8931 226.798 85.9325 216.7 79.249ZM221.819 128.152C224.153 127.129 226.877 128.19 227.9 130.522C232.768 141.601 233.854 150.577 233.546 163.015C240.338 156.131 245.969 147.286 254.46 130.314C255.599 128.035 258.373 127.112 260.654 128.25C262.934 129.388 263.86 132.158 262.72 134.436C250.912 158.038 243.897 167.506 231.254 177.241C229.821 178.344 227.873 178.51 226.273 177.664C224.674 176.818 223.718 175.117 223.827 173.312C224.929 154.96 224.687 146.16 219.446 134.227C218.421 131.895 219.483 129.175 221.819 128.152ZM114.819 44.5081C113.059 42.6661 113.126 39.7473 114.971 37.9888C123.733 29.6349 131.808 25.5489 143.617 21.5881C134.818 17.5636 124.571 15.3014 105.699 13.1306C103.166 12.8392 101.349 10.5521 101.641 8.0222C101.933 5.49227 104.223 3.67756 106.756 3.96895C133 6.98769 144.306 10.337 157.786 18.8781C159.314 19.8464 160.135 21.6173 159.886 23.4075C159.636 25.1977 158.362 26.6773 156.628 27.1921C138.982 32.427 130.784 35.6614 121.347 44.6596C119.502 46.4181 116.58 46.3502 114.819 44.5081ZM82.2068 56.1145C81.2832 58.4883 82.4614 61.1603 84.838 62.0826C87.2147 63.005 89.89 61.8284 90.8136 59.4546C95.5387 47.3082 101.589 40.9065 115.346 28.6906C116.698 27.4895 117.224 25.61 116.689 23.883C116.155 22.1561 114.66 20.9002 112.864 20.6707C97.03 18.6463 85.3683 20.4027 60.3202 28.7863C57.9027 29.5954 56.5995 32.209 57.4098 34.6236C58.22 37.0383 60.8366 38.3398 63.2543 37.5306C81.2662 31.502 91.5064 29.2099 101.183 29.1273C92.1718 37.7163 86.5938 44.8377 82.2068 56.1145ZM63.2977 90.7677C60.7548 90.954 58.542 89.0459 58.3557 86.5061C57.47 74.4403 59.4464 65.6169 63.8929 53.9954C55.1888 58.2197 46.9258 64.681 33.25 77.8496C31.4145 79.6171 28.4917 79.5638 26.722 77.7305C24.9523 75.8971 25.0057 72.9781 26.8413 71.2105C45.8592 52.8978 55.636 46.3105 70.807 41.3488C72.527 40.7862 74.4173 41.2793 75.6422 42.6098C76.8673 43.9402 77.2009 45.8631 76.4956 47.5277C69.3228 64.4595 66.6107 72.8357 67.5645 85.8318C67.751 88.3718 65.8406 90.5816 63.2977 90.7677ZM47.7892 126.49C48.9736 128.745 51.7642 129.614 54.0222 128.431C56.2802 127.248 57.1505 124.461 55.966 122.206C49.9051 110.666 49.0503 101.904 48.8726 83.5198C48.8553 81.7122 47.782 80.0818 46.1277 79.349C44.4732 78.6163 42.5426 78.9166 41.1897 80.1172C29.2556 90.7067 22.9172 100.64 12.7822 125.005C11.804 127.357 12.9198 130.056 15.2745 131.033C17.6292 132.01 20.331 130.895 21.3093 128.544C28.5973 111.022 33.5973 101.807 39.8948 94.4682C40.454 106.897 42.1622 115.776 47.7892 126.49ZM65.4652 163.016C63.9431 165.06 61.0508 165.483 59.0052 163.963C49.2872 156.741 43.8967 149.477 38.0025 138.517C35.5094 147.856 34.9992 158.325 36.0293 177.27C36.1674 179.813 34.2156 181.987 31.6695 182.125C29.1235 182.263 26.9475 180.313 26.8093 177.77C25.3769 151.424 26.7819 139.73 32.9458 125.022C33.6446 123.354 35.2544 122.249 37.0632 122.193C38.8721 122.138 40.5467 123.143 41.3463 124.765C49.4795 141.258 54.0499 148.785 64.5173 156.564C66.5629 158.085 66.9872 160.973 65.4652 163.016ZM82.9508 194.963C85.4319 195.55 87.9198 194.017 88.5076 191.538C89.0954 189.061 87.5606 186.577 85.0795 185.988C72.3837 182.985 65.2029 177.88 51.1962 165.95C49.8193 164.778 47.883 164.516 46.2438 165.283C44.6047 166.049 43.5648 167.701 43.584 169.508C43.7541 185.452 47.1 196.747 58.8589 220.372C59.9939 222.654 62.7649 223.584 65.0482 222.449C67.3315 221.315 68.2622 218.548 67.1272 216.269C58.6715 199.277 54.9901 189.463 53.5771 179.901C63.3344 187.635 71.164 192.173 82.9508 194.963ZM120.441 208.147C121.018 210.628 119.471 213.105 116.987 213.681C105.188 216.416 96.1544 215.828 83.972 213.233C89.4937 221.169 97.1602 228.328 112.297 239.791C114.328 241.329 114.726 244.223 113.186 246.252C111.645 248.281 108.749 248.677 106.717 247.139C85.6681 231.197 77.6437 222.565 70.395 208.36C69.5732 206.749 69.7693 204.807 70.8966 203.394C72.0238 201.98 73.8744 201.354 75.6299 201.793C93.4863 206.259 102.191 207.644 114.9 204.698C117.384 204.121 119.865 205.667 120.441 208.147ZM155.221 213.607C157.19 211.988 157.472 209.083 155.852 207.116C154.231 205.15 151.322 204.868 149.353 206.487C139.28 214.767 130.866 217.392 112.883 221.319C111.115 221.704 109.736 223.087 109.356 224.854C108.975 226.621 109.664 228.447 111.116 229.525C123.932 239.033 134.962 243.201 160.912 248.137C163.417 248.615 165.834 246.971 166.311 244.47C166.788 241.969 165.144 239.555 162.64 239.079C143.979 235.528 133.926 232.522 125.447 227.863C137.515 224.779 145.869 221.295 155.221 213.607ZM190.903 190.077C193.18 191.225 194.096 193.997 192.949 196.271C187.497 207.076 181.26 213.629 171.464 221.313C181.104 222.16 191.518 220.859 210.026 216.588C212.51 216.014 214.99 217.56 215.564 220.042C216.139 222.523 214.589 225 212.105 225.572C186.367 231.515 174.59 232.144 159.024 228.61C157.259 228.209 155.891 226.815 155.526 225.046C155.16 223.276 155.863 221.455 157.325 220.389C172.193 209.549 178.831 203.758 184.703 192.121C185.85 189.847 188.626 188.932 190.903 190.077ZM216.523 168.859C216.538 166.313 214.482 164.236 211.932 164.221C209.383 164.206 207.304 166.259 207.289 168.805C207.212 181.836 203.847 189.972 195.357 206.286C194.523 207.889 194.703 209.833 195.819 211.255C196.935 212.679 198.781 213.319 200.539 212.893C216.056 209.143 226.323 203.348 246.73 186.591C248.698 184.976 248.983 182.069 247.363 180.102C245.743 178.135 242.835 177.851 240.864 179.468C226.19 191.518 217.442 197.308 208.432 200.832C213.784 189.598 216.451 180.957 216.523 168.859Z" fill="#989494"/>
<path d="M136.688 136.592C127.387 136.592 120.176 134.16 115.056 129.296C110.021 124.432 107.504 117.52 107.504 108.56C107.504 99.6 110.107 92.4747 115.312 87.184C120.603 81.808 127.728 79.12 136.688 79.12C157.339 79.12 167.664 92.6027 167.664 119.568C167.664 144.485 161.691 160.229 149.744 166.8C144.965 169.445 139.163 170.768 132.336 170.768C128.752 170.768 125.253 170.427 121.84 169.744C118.427 169.061 115.909 168.379 114.288 167.696L111.728 166.544L115.312 153.744C121.285 156.048 127.344 157.2 133.488 157.2C145.093 157.2 151.451 149.179 152.56 133.136C147.696 135.44 142.405 136.592 136.688 136.592ZM136.048 92.56C131.867 92.56 128.496 93.968 125.936 96.784C123.461 99.5147 122.224 102.971 122.224 107.152C122.224 117.819 127.216 123.152 137.2 123.152C142.235 123.152 147.483 121.616 152.944 118.544V118.032C152.944 109.584 151.621 103.227 148.976 98.96C146.416 94.6933 142.107 92.56 136.048 92.56Z" fill="#3FABA9"/>
<path d="M12.2727 304L6.40909 296.176H4.55114V304H1.91761V286.545H4.55114V293.918H5.41193L12.0085 286.545H15.2216L8.24148 294.361L15.4858 304H12.2727ZM17.7209 308.909V290.909H20.2095V293.031H20.4226C20.5703 292.759 20.7834 292.443 21.0618 292.085C21.3402 291.727 21.7266 291.415 22.2209 291.148C22.7152 290.875 23.3686 290.739 24.1811 290.739C25.2379 290.739 26.1811 291.006 27.0107 291.54C27.8402 292.074 28.4908 292.844 28.9624 293.849C29.4396 294.855 29.6783 296.065 29.6783 297.48C29.6783 298.895 29.4425 300.108 28.9709 301.119C28.4993 302.125 27.8516 302.901 27.0277 303.446C26.2038 303.986 25.2635 304.256 24.2067 304.256C23.4112 304.256 22.7607 304.122 22.255 303.855C21.755 303.588 21.3629 303.276 21.0788 302.918C20.7947 302.56 20.576 302.241 20.4226 301.963H20.2692V308.909H17.7209ZM20.218 297.455C20.218 298.375 20.3516 299.182 20.6186 299.875C20.8857 300.568 21.272 301.111 21.7777 301.503C22.2834 301.889 22.9027 302.082 23.6357 302.082C24.397 302.082 25.0334 301.881 25.5447 301.477C26.0561 301.068 26.4425 300.514 26.7038 299.815C26.9709 299.116 27.1044 298.33 27.1044 297.455C27.1044 296.591 26.9737 295.815 26.7124 295.128C26.4567 294.44 26.0703 293.898 25.5533 293.5C25.0419 293.102 24.4027 292.903 23.6357 292.903C22.897 292.903 22.272 293.094 21.7607 293.474C21.255 293.855 20.8714 294.386 20.6101 295.068C20.3487 295.75 20.218 296.545 20.218 297.455ZM33.6989 308.909C33.3182 308.909 32.9716 308.878 32.6591 308.815C32.3466 308.759 32.1136 308.696 31.9602 308.628L32.5739 306.54C33.0398 306.665 33.4545 306.719 33.8182 306.702C34.1818 306.685 34.5028 306.548 34.7812 306.293C35.0653 306.037 35.3153 305.619 35.5312 305.04L35.8466 304.17L31.0568 290.909H33.7841L37.0994 301.068H37.2358L40.5511 290.909H43.2869L37.892 305.747C37.642 306.429 37.3239 307.006 36.9375 307.477C36.5511 307.955 36.0909 308.313 35.5568 308.551C35.0227 308.79 34.4034 308.909 33.6989 308.909ZM45.6818 304V290.909H56.3608V304H53.8636V293.108H48.1619V304H45.6818ZM68.6399 296.355V298.562H61.549V296.355H68.6399ZM62.2649 290.909V304H59.7678V290.909H62.2649ZM70.4212 290.909V304H67.9325V290.909H70.4212ZM79.4723 304.264C78.1825 304.264 77.0717 303.989 76.1399 303.438C75.2138 302.881 74.4979 302.099 73.9922 301.094C73.4922 300.082 73.2422 298.898 73.2422 297.54C73.2422 296.199 73.4922 295.017 73.9922 293.994C74.4979 292.972 75.2024 292.173 76.1058 291.599C77.0149 291.026 78.0774 290.739 79.2933 290.739C80.032 290.739 80.7479 290.861 81.4411 291.105C82.1342 291.349 82.7564 291.733 83.3075 292.256C83.8587 292.778 84.2933 293.457 84.6115 294.293C84.9297 295.122 85.0888 296.131 85.0888 297.318V298.222H74.6825V296.312H82.5916C82.5916 295.642 82.4553 295.048 82.1825 294.531C81.9098 294.009 81.5263 293.597 81.032 293.295C80.5433 292.994 79.9695 292.844 79.3104 292.844C78.5945 292.844 77.9695 293.02 77.4354 293.372C76.907 293.719 76.4979 294.173 76.2081 294.736C75.924 295.293 75.782 295.898 75.782 296.551V298.043C75.782 298.918 75.9354 299.662 76.2422 300.276C76.5547 300.889 76.9893 301.358 77.5462 301.682C78.103 302 78.7536 302.159 79.4979 302.159C79.9808 302.159 80.4212 302.091 80.8189 301.955C81.2166 301.812 81.5604 301.602 81.8501 301.324C82.1399 301.045 82.3615 300.702 82.5149 300.293L84.9268 300.727C84.7337 301.437 84.3871 302.06 83.8871 302.594C83.3928 303.122 82.7706 303.534 82.0206 303.83C81.2763 304.119 80.4268 304.264 79.4723 304.264ZM90.4134 300.429L96.1832 290.909H98.9276V304H96.4304V294.472L90.6861 304H87.9162V290.909H90.4134V300.429ZM95.0923 286.477H97.1889C97.1889 287.437 96.848 288.219 96.1662 288.821C95.4901 289.418 94.5753 289.716 93.4219 289.716C92.2741 289.716 91.3622 289.418 90.6861 288.821C90.0099 288.219 89.6719 287.437 89.6719 286.477H91.7599C91.7599 286.903 91.8849 287.281 92.1349 287.611C92.3849 287.935 92.8139 288.097 93.4219 288.097C94.0185 288.097 94.4446 287.935 94.7003 287.611C94.9616 287.287 95.0923 286.909 95.0923 286.477ZM102.354 290.909H104.851V301.793H109.376V290.909H111.874V301.793H116.399V290.909H118.896V304H102.354V290.909ZM124.796 300.429L130.566 290.909H133.31V304H130.813V294.472L125.069 304H122.299V290.909H124.796V300.429ZM142.379 304.264C141.089 304.264 139.978 303.989 139.046 303.438C138.12 302.881 137.404 302.099 136.898 301.094C136.398 300.082 136.148 298.898 136.148 297.54C136.148 296.199 136.398 295.017 136.898 293.994C137.404 292.972 138.109 292.173 139.012 291.599C139.921 291.026 140.984 290.739 142.2 290.739C142.938 290.739 143.654 290.861 144.347 291.105C145.04 291.349 145.663 291.733 146.214 292.256C146.765 292.778 147.2 293.457 147.518 294.293C147.836 295.122 147.995 296.131 147.995 297.318V298.222H137.589V296.312H145.498C145.498 295.642 145.362 295.048 145.089 294.531C144.816 294.009 144.433 293.597 143.938 293.295C143.45 292.994 142.876 292.844 142.217 292.844C141.501 292.844 140.876 293.02 140.342 293.372C139.813 293.719 139.404 294.173 139.114 294.736C138.83 295.293 138.688 295.898 138.688 296.551V298.043C138.688 298.918 138.842 299.662 139.148 300.276C139.461 300.889 139.896 301.358 140.452 301.682C141.009 302 141.66 302.159 142.404 302.159C142.887 302.159 143.327 302.091 143.725 301.955C144.123 301.812 144.467 301.602 144.756 301.324C145.046 301.045 145.268 300.702 145.421 300.293L147.833 300.727C147.64 301.437 147.293 302.06 146.793 302.594C146.299 303.122 145.677 303.534 144.927 303.83C144.183 304.119 143.333 304.264 142.379 304.264ZM157.174 304V290.909H162.603C164.08 290.909 165.251 291.224 166.114 291.855C166.978 292.48 167.41 293.33 167.41 294.403C167.41 295.17 167.165 295.778 166.677 296.227C166.188 296.676 165.54 296.977 164.734 297.131C165.319 297.199 165.856 297.375 166.344 297.659C166.833 297.937 167.225 298.312 167.521 298.784C167.822 299.256 167.972 299.818 167.972 300.472C167.972 301.165 167.793 301.778 167.435 302.312C167.077 302.841 166.558 303.256 165.876 303.557C165.2 303.852 164.384 304 163.43 304H157.174ZM159.569 301.869H163.43C164.06 301.869 164.555 301.719 164.913 301.418C165.271 301.116 165.45 300.707 165.45 300.19C165.45 299.582 165.271 299.105 164.913 298.759C164.555 298.406 164.06 298.23 163.43 298.23H159.569V301.869ZM159.569 296.364H162.629C163.106 296.364 163.515 296.295 163.856 296.159C164.202 296.023 164.467 295.83 164.648 295.58C164.836 295.324 164.93 295.023 164.93 294.676C164.93 294.17 164.722 293.776 164.308 293.491C163.893 293.207 163.325 293.065 162.603 293.065H159.569V296.364ZM176.41 304.264C175.12 304.264 174.009 303.989 173.077 303.438C172.151 302.881 171.435 302.099 170.93 301.094C170.43 300.082 170.18 298.898 170.18 297.54C170.18 296.199 170.43 295.017 170.93 293.994C171.435 292.972 172.14 292.173 173.043 291.599C173.952 291.026 175.015 290.739 176.231 290.739C176.969 290.739 177.685 290.861 178.379 291.105C179.072 291.349 179.694 291.733 180.245 292.256C180.796 292.778 181.231 293.457 181.549 294.293C181.867 295.122 182.026 296.131 182.026 297.318V298.222H171.62V296.312H179.529C179.529 295.642 179.393 295.048 179.12 294.531C178.847 294.009 178.464 293.597 177.969 293.295C177.481 292.994 176.907 292.844 176.248 292.844C175.532 292.844 174.907 293.02 174.373 293.372C173.844 293.719 173.435 294.173 173.146 294.736C172.862 295.293 172.719 295.898 172.719 296.551V298.043C172.719 298.918 172.873 299.662 173.18 300.276C173.492 300.889 173.927 301.358 174.484 301.682C175.04 302 175.691 302.159 176.435 302.159C176.918 302.159 177.359 302.091 177.756 301.955C178.154 301.812 178.498 301.602 178.788 301.324C179.077 301.045 179.299 300.702 179.452 300.293L181.864 300.727C181.671 301.437 181.325 302.06 180.825 302.594C180.33 303.122 179.708 303.534 178.958 303.83C178.214 304.119 177.364 304.264 176.41 304.264ZM193.726 296.355V298.562H186.635V296.355H193.726ZM187.351 290.909V304H184.854V290.909H187.351ZM195.507 290.909V304H193.018V290.909H195.507ZM197.638 307.776V301.793H198.703C198.976 301.543 199.206 301.244 199.393 300.898C199.587 300.551 199.749 300.139 199.879 299.662C200.016 299.185 200.129 298.628 200.22 297.991C200.311 297.349 200.391 296.616 200.459 295.793L200.868 290.909H209.766V301.793H211.777V307.776H209.288V304H200.161V307.776H197.638ZM201.43 301.793H207.277V293.091H203.152L202.879 295.793C202.749 297.168 202.584 298.361 202.385 299.372C202.186 300.378 201.868 301.185 201.43 301.793ZM219.782 304.264C218.555 304.264 217.484 303.983 216.569 303.42C215.654 302.858 214.944 302.071 214.438 301.06C213.933 300.048 213.68 298.866 213.68 297.514C213.68 296.156 213.933 294.969 214.438 293.952C214.944 292.935 215.654 292.145 216.569 291.582C217.484 291.02 218.555 290.739 219.782 290.739C221.009 290.739 222.08 291.02 222.995 291.582C223.91 292.145 224.62 292.935 225.126 293.952C225.631 294.969 225.884 296.156 225.884 297.514C225.884 298.866 225.631 300.048 225.126 301.06C224.62 302.071 223.91 302.858 222.995 303.42C222.08 303.983 221.009 304.264 219.782 304.264ZM219.79 302.125C220.586 302.125 221.245 301.915 221.768 301.494C222.29 301.074 222.677 300.514 222.927 299.815C223.183 299.116 223.31 298.347 223.31 297.506C223.31 296.67 223.183 295.903 222.927 295.205C222.677 294.5 222.29 293.935 221.768 293.509C221.245 293.082 220.586 292.869 219.79 292.869C218.989 292.869 218.325 293.082 217.796 293.509C217.273 293.935 216.884 294.5 216.629 295.205C216.379 295.903 216.254 296.67 216.254 297.506C216.254 298.347 216.379 299.116 216.629 299.815C216.884 300.514 217.273 301.074 217.796 301.494C218.325 301.915 218.989 302.125 219.79 302.125ZM228.729 308.909V290.909H231.217V293.031H231.43C231.578 292.759 231.791 292.443 232.07 292.085C232.348 291.727 232.734 291.415 233.229 291.148C233.723 290.875 234.376 290.739 235.189 290.739C236.246 290.739 237.189 291.006 238.018 291.54C238.848 292.074 239.499 292.844 239.97 293.849C240.447 294.855 240.686 296.065 240.686 297.48C240.686 298.895 240.45 300.108 239.979 301.119C239.507 302.125 238.859 302.901 238.036 303.446C237.212 303.986 236.271 304.256 235.214 304.256C234.419 304.256 233.768 304.122 233.263 303.855C232.763 303.588 232.371 303.276 232.087 302.918C231.803 302.56 231.584 302.241 231.43 301.963H231.277V308.909H228.729ZM231.226 297.455C231.226 298.375 231.359 299.182 231.626 299.875C231.893 300.568 232.28 301.111 232.786 301.503C233.291 301.889 233.911 302.082 234.643 302.082C235.405 302.082 236.041 301.881 236.553 301.477C237.064 301.068 237.45 300.514 237.712 299.815C237.979 299.116 238.112 298.33 238.112 297.455C238.112 296.591 237.982 295.815 237.72 295.128C237.464 294.44 237.078 293.898 236.561 293.5C236.05 293.102 235.411 292.903 234.643 292.903C233.905 292.903 233.28 293.094 232.768 293.474C232.263 293.855 231.879 294.386 231.618 295.068C231.357 295.75 231.226 296.545 231.226 297.455ZM245.459 295.409H249.26C250.862 295.409 252.095 295.807 252.959 296.602C253.822 297.398 254.254 298.423 254.254 299.679C254.254 300.497 254.061 301.233 253.675 301.886C253.288 302.54 252.723 303.057 251.979 303.438C251.234 303.812 250.328 304 249.26 304H243.541V290.909H246.038V301.801H249.26C249.993 301.801 250.595 301.611 251.067 301.23C251.538 300.844 251.774 300.352 251.774 299.756C251.774 299.125 251.538 298.611 251.067 298.213C250.595 297.81 249.993 297.608 249.26 297.608H245.459V295.409ZM256.112 304V290.909H258.661V304H256.112ZM1.91761 333V315.545H8.1392C9.49716 315.545 10.6222 315.793 11.5142 316.287C12.4063 316.781 13.0739 317.457 13.517 318.315C13.9602 319.168 14.1818 320.128 14.1818 321.196C14.1818 322.27 13.9574 323.236 13.5085 324.094C13.0653 324.946 12.3949 325.622 11.4972 326.122C10.6051 326.616 9.48295 326.864 8.13068 326.864H3.85227V324.631H7.89205C8.75 324.631 9.44602 324.483 9.98011 324.188C10.5142 323.886 10.9062 323.477 11.1562 322.96C11.4062 322.443 11.5312 321.855 11.5312 321.196C11.5312 320.537 11.4062 319.952 11.1562 319.44C10.9062 318.929 10.5114 318.528 9.97159 318.239C9.4375 317.949 8.73295 317.804 7.85795 317.804H4.55114V333H1.91761ZM22.4148 333.264C21.1875 333.264 20.1165 332.983 19.2017 332.42C18.2869 331.858 17.5767 331.071 17.071 330.06C16.5653 329.048 16.3125 327.866 16.3125 326.514C16.3125 325.156 16.5653 323.969 17.071 322.952C17.5767 321.935 18.2869 321.145 19.2017 320.582C20.1165 320.02 21.1875 319.739 22.4148 319.739C23.642 319.739 24.7131 320.02 25.6278 320.582C26.5426 321.145 27.2528 321.935 27.7585 322.952C28.2642 323.969 28.517 325.156 28.517 326.514C28.517 327.866 28.2642 329.048 27.7585 330.06C27.2528 331.071 26.5426 331.858 25.6278 332.42C24.7131 332.983 23.642 333.264 22.4148 333.264ZM22.4233 331.125C23.2188 331.125 23.8778 330.915 24.4006 330.494C24.9233 330.074 25.3097 329.514 25.5597 328.815C25.8153 328.116 25.9432 327.347 25.9432 326.506C25.9432 325.67 25.8153 324.903 25.5597 324.205C25.3097 323.5 24.9233 322.935 24.4006 322.509C23.8778 322.082 23.2188 321.869 22.4233 321.869C21.6222 321.869 20.9574 322.082 20.429 322.509C19.9063 322.935 19.517 323.5 19.2614 324.205C19.0114 324.903 18.8864 325.67 18.8864 326.506C18.8864 327.347 19.0114 328.116 19.2614 328.815C19.517 329.514 19.9063 330.074 20.429 330.494C20.9574 330.915 21.6222 331.125 22.4233 331.125ZM36.8757 333.264C35.6087 333.264 34.5178 332.977 33.603 332.403C32.6939 331.824 31.995 331.026 31.5064 330.009C31.0178 328.991 30.7734 327.827 30.7734 326.514C30.7734 325.185 31.0234 324.011 31.5234 322.994C32.0234 321.972 32.728 321.173 33.6371 320.599C34.5462 320.026 35.6172 319.739 36.8501 319.739C37.8445 319.739 38.7308 319.923 39.5092 320.293C40.2876 320.656 40.9155 321.168 41.3928 321.827C41.8757 322.486 42.1626 323.256 42.2536 324.136H39.7734C39.6371 323.523 39.3246 322.994 38.8359 322.551C38.353 322.108 37.7053 321.886 36.8928 321.886C36.1825 321.886 35.5604 322.074 35.0263 322.449C34.4979 322.818 34.0859 323.347 33.7905 324.034C33.495 324.716 33.3473 325.523 33.3473 326.455C33.3473 327.409 33.4922 328.233 33.782 328.926C34.0717 329.619 34.4808 330.156 35.0092 330.537C35.5433 330.918 36.1712 331.108 36.8928 331.108C37.3757 331.108 37.8132 331.02 38.2053 330.844C38.603 330.662 38.9354 330.403 39.2024 330.068C39.4751 329.733 39.6655 329.33 39.7734 328.858H42.2536C42.1626 329.705 41.8871 330.46 41.4268 331.125C40.9666 331.79 40.3501 332.312 39.5774 332.693C38.8104 333.074 37.9098 333.264 36.8757 333.264ZM50.4929 333.264C49.2259 333.264 48.1349 332.977 47.2202 332.403C46.3111 331.824 45.6122 331.026 45.1236 330.009C44.6349 328.991 44.3906 327.827 44.3906 326.514C44.3906 325.185 44.6406 324.011 45.1406 322.994C45.6406 321.972 46.3452 321.173 47.2543 320.599C48.1634 320.026 49.2344 319.739 50.4673 319.739C51.4616 319.739 52.348 319.923 53.1264 320.293C53.9048 320.656 54.5327 321.168 55.0099 321.827C55.4929 322.486 55.7798 323.256 55.8707 324.136H53.3906C53.2543 323.523 52.9418 322.994 52.4531 322.551C51.9702 322.108 51.3224 321.886 50.5099 321.886C49.7997 321.886 49.1776 322.074 48.6435 322.449C48.1151 322.818 47.7031 323.347 47.4077 324.034C47.1122 324.716 46.9645 325.523 46.9645 326.455C46.9645 327.409 47.1094 328.233 47.3991 328.926C47.6889 329.619 48.098 330.156 48.6264 330.537C49.1605 330.918 49.7884 331.108 50.5099 331.108C50.9929 331.108 51.4304 331.02 51.8224 330.844C52.2202 330.662 52.5526 330.403 52.8196 330.068C53.0923 329.733 53.2827 329.33 53.3906 328.858H55.8707C55.7798 329.705 55.5043 330.46 55.044 331.125C54.5838 331.79 53.9673 332.312 53.1946 332.693C52.4276 333.074 51.527 333.264 50.4929 333.264ZM61.093 329.429L66.8629 319.909H69.6072V333H67.1101V323.472L61.3658 333H58.5959V319.909H61.093V329.429ZM75.5305 329.429L81.3004 319.909H84.0447V333H81.5476V323.472L75.8033 333H73.0334V319.909H75.5305V329.429ZM93.8224 333V319.909H99.2514C100.729 319.909 101.899 320.224 102.763 320.855C103.626 321.48 104.058 322.33 104.058 323.403C104.058 324.17 103.814 324.778 103.325 325.227C102.837 325.676 102.189 325.977 101.382 326.131C101.967 326.199 102.504 326.375 102.993 326.659C103.482 326.937 103.874 327.312 104.169 327.784C104.47 328.256 104.621 328.818 104.621 329.472C104.621 330.165 104.442 330.778 104.084 331.312C103.726 331.841 103.206 332.256 102.524 332.557C101.848 332.852 101.033 333 100.078 333H93.8224ZM96.2173 330.869H100.078C100.709 330.869 101.203 330.719 101.561 330.418C101.919 330.116 102.098 329.707 102.098 329.19C102.098 328.582 101.919 328.105 101.561 327.759C101.203 327.406 100.709 327.23 100.078 327.23H96.2173V330.869ZM96.2173 325.364H99.277C99.7543 325.364 100.163 325.295 100.504 325.159C100.851 325.023 101.115 324.83 101.297 324.58C101.484 324.324 101.578 324.023 101.578 323.676C101.578 323.17 101.371 322.776 100.956 322.491C100.541 322.207 99.973 322.065 99.2514 322.065H96.2173V325.364ZM119.282 333.264C118.015 333.264 116.924 332.977 116.009 332.403C115.1 331.824 114.401 331.026 113.913 330.009C113.424 328.991 113.18 327.827 113.18 326.514C113.18 325.185 113.43 324.011 113.93 322.994C114.43 321.972 115.134 321.173 116.043 320.599C116.952 320.026 118.023 319.739 119.256 319.739C120.251 319.739 121.137 319.923 121.915 320.293C122.694 320.656 123.322 321.168 123.799 321.827C124.282 322.486 124.569 323.256 124.66 324.136H122.18C122.043 323.523 121.731 322.994 121.242 322.551C120.759 322.108 120.112 321.886 119.299 321.886C118.589 321.886 117.967 322.074 117.433 322.449C116.904 322.818 116.492 323.347 116.197 324.034C115.901 324.716 115.754 325.523 115.754 326.455C115.754 327.409 115.898 328.233 116.188 328.926C116.478 329.619 116.887 330.156 117.415 330.537C117.95 330.918 118.577 331.108 119.299 331.108C119.782 331.108 120.219 331.02 120.612 330.844C121.009 330.662 121.342 330.403 121.609 330.068C121.881 329.733 122.072 329.33 122.18 328.858H124.66C124.569 329.705 124.293 330.46 123.833 331.125C123.373 331.79 122.756 332.312 121.984 332.693C121.217 333.074 120.316 333.264 119.282 333.264ZM133.018 337.457V315.545H135.567V337.457H133.018ZM133.018 333.264C132.092 333.264 131.249 333.105 130.487 332.787C129.726 332.463 129.07 332.003 128.518 331.406C127.967 330.81 127.541 330.097 127.24 329.267C126.945 328.437 126.797 327.52 126.797 326.514C126.797 325.497 126.945 324.574 127.24 323.744C127.541 322.915 127.967 322.202 128.518 321.605C129.07 321.009 129.726 320.548 130.487 320.224C131.249 319.901 132.092 319.739 133.018 319.739H133.649V333.264H133.018ZM133.018 331.116H133.376V321.886H133.018C132.405 321.886 131.871 322.011 131.416 322.261C130.962 322.506 130.584 322.844 130.283 323.276C129.982 323.702 129.754 324.193 129.601 324.75C129.453 325.307 129.379 325.895 129.379 326.514C129.379 327.344 129.513 328.108 129.78 328.807C130.047 329.5 130.45 330.06 130.99 330.486C131.53 330.906 132.206 331.116 133.018 331.116ZM135.567 333.264H134.928V319.739H135.567C136.493 319.739 137.337 319.901 138.098 320.224C138.859 320.548 139.513 321.009 140.058 321.605C140.609 322.202 141.033 322.915 141.328 323.744C141.629 324.574 141.78 325.497 141.78 326.514C141.78 327.52 141.629 328.437 141.328 329.267C141.033 330.097 140.609 330.81 140.058 331.406C139.513 332.003 138.859 332.463 138.098 332.787C137.337 333.105 136.493 333.264 135.567 333.264ZM135.567 331.116C136.18 331.116 136.714 330.997 137.169 330.759C137.624 330.514 138.001 330.179 138.303 329.753C138.604 329.321 138.828 328.83 138.976 328.278C139.124 327.722 139.197 327.134 139.197 326.514C139.197 325.69 139.064 324.929 138.797 324.23C138.536 323.526 138.135 322.96 137.595 322.534C137.055 322.102 136.379 321.886 135.567 321.886H135.2V331.116H135.567ZM150.254 333.264C148.964 333.264 147.853 332.989 146.921 332.438C145.995 331.881 145.279 331.099 144.773 330.094C144.273 329.082 144.023 327.898 144.023 326.54C144.023 325.199 144.273 324.017 144.773 322.994C145.279 321.972 145.984 321.173 146.887 320.599C147.796 320.026 148.859 319.739 150.075 319.739C150.813 319.739 151.529 319.861 152.222 320.105C152.915 320.349 153.538 320.733 154.089 321.256C154.64 321.778 155.075 322.457 155.393 323.293C155.711 324.122 155.87 325.131 155.87 326.318V327.222H145.464V325.312H153.373C153.373 324.642 153.237 324.048 152.964 323.531C152.691 323.009 152.308 322.597 151.813 322.295C151.325 321.994 150.751 321.844 150.092 321.844C149.376 321.844 148.751 322.02 148.217 322.372C147.688 322.719 147.279 323.173 146.989 323.736C146.705 324.293 146.563 324.898 146.563 325.551V327.043C146.563 327.918 146.717 328.662 147.023 329.276C147.336 329.889 147.771 330.358 148.327 330.682C148.884 331 149.535 331.159 150.279 331.159C150.762 331.159 151.202 331.091 151.6 330.955C151.998 330.812 152.342 330.602 152.631 330.324C152.921 330.045 153.143 329.702 153.296 329.293L155.708 329.727C155.515 330.437 155.168 331.06 154.668 331.594C154.174 332.122 153.552 332.534 152.802 332.83C152.058 333.119 151.208 333.264 150.254 333.264ZM158.697 337.909V319.909H161.186V322.031H161.399C161.547 321.759 161.76 321.443 162.038 321.085C162.317 320.727 162.703 320.415 163.197 320.148C163.692 319.875 164.345 319.739 165.158 319.739C166.214 319.739 167.158 320.006 167.987 320.54C168.817 321.074 169.467 321.844 169.939 322.849C170.416 323.855 170.655 325.065 170.655 326.48C170.655 327.895 170.419 329.108 169.947 330.119C169.476 331.125 168.828 331.901 168.004 332.446C167.18 332.986 166.24 333.256 165.183 333.256C164.388 333.256 163.737 333.122 163.232 332.855C162.732 332.588 162.339 332.276 162.055 331.918C161.771 331.56 161.553 331.241 161.399 330.963H161.246V337.909H158.697ZM161.195 326.455C161.195 327.375 161.328 328.182 161.595 328.875C161.862 329.568 162.249 330.111 162.754 330.503C163.26 330.889 163.879 331.082 164.612 331.082C165.374 331.082 166.01 330.881 166.521 330.477C167.033 330.068 167.419 329.514 167.68 328.815C167.947 328.116 168.081 327.33 168.081 326.455C168.081 325.591 167.95 324.815 167.689 324.128C167.433 323.44 167.047 322.898 166.53 322.5C166.018 322.102 165.379 321.903 164.612 321.903C163.874 321.903 163.249 322.094 162.737 322.474C162.232 322.855 161.848 323.386 161.587 324.068C161.325 324.75 161.195 325.545 161.195 326.455ZM179.152 333.264C177.862 333.264 176.751 332.989 175.82 332.438C174.893 331.881 174.178 331.099 173.672 330.094C173.172 329.082 172.922 327.898 172.922 326.54C172.922 325.199 173.172 324.017 173.672 322.994C174.178 321.972 174.882 321.173 175.786 320.599C176.695 320.026 177.757 319.739 178.973 319.739C179.712 319.739 180.428 319.861 181.121 320.105C181.814 320.349 182.436 320.733 182.987 321.256C183.538 321.778 183.973 322.457 184.291 323.293C184.609 324.122 184.768 325.131 184.768 326.318V327.222H174.362V325.312H182.271C182.271 324.642 182.135 324.048 181.862 323.531C181.589 323.009 181.206 322.597 180.712 322.295C180.223 321.994 179.649 321.844 178.99 321.844C178.274 321.844 177.649 322.02 177.115 322.372C176.587 322.719 176.178 323.173 175.888 323.736C175.604 324.293 175.462 324.898 175.462 325.551V327.043C175.462 327.918 175.615 328.662 175.922 329.276C176.234 329.889 176.669 330.358 177.226 330.682C177.783 331 178.433 331.159 179.178 331.159C179.661 331.159 180.101 331.091 180.499 330.955C180.896 330.812 181.24 330.602 181.53 330.324C181.82 330.045 182.041 329.702 182.195 329.293L184.607 329.727C184.413 330.437 184.067 331.06 183.567 331.594C183.072 332.122 182.45 332.534 181.7 332.83C180.956 333.119 180.107 333.264 179.152 333.264ZM0.9375 358.54H3.54545C3.57955 359.074 3.82102 359.486 4.26989 359.776C4.72443 360.065 5.3125 360.21 6.03409 360.21C6.76705 360.21 7.39205 360.054 7.90909 359.741C8.42614 359.423 8.68466 358.932 8.68466 358.267C8.68466 357.869 8.58523 357.523 8.38636 357.227C8.19318 356.926 7.91761 356.693 7.55966 356.528C7.20739 356.364 6.78977 356.281 6.30682 356.281H4.17614V354.278H6.30682C7.02841 354.278 7.56818 354.114 7.92614 353.784C8.28409 353.455 8.46307 353.043 8.46307 352.548C8.46307 352.014 8.26989 351.585 7.88352 351.261C7.50284 350.932 6.97159 350.767 6.28977 350.767C5.59659 350.767 5.01989 350.923 4.55966 351.236C4.09943 351.543 3.85795 351.94 3.83523 352.429H1.26136C1.27841 351.696 1.5 351.054 1.92614 350.503C2.35795 349.946 2.9375 349.514 3.66477 349.207C4.39773 348.895 5.23011 348.739 6.16193 348.739C7.13352 348.739 7.97443 348.895 8.68466 349.207C9.39489 349.52 9.94318 349.952 10.3295 350.503C10.7216 351.054 10.9176 351.687 10.9176 352.403C10.9176 353.125 10.7017 353.716 10.2699 354.176C9.84375 354.631 9.28693 354.957 8.59943 355.156V355.293C9.10511 355.327 9.55398 355.48 9.94602 355.753C10.3381 356.026 10.6449 356.386 10.8665 356.835C11.0881 357.284 11.1989 357.793 11.1989 358.361C11.1989 359.162 10.9773 359.855 10.5341 360.44C10.0966 361.026 9.48864 361.477 8.71023 361.795C7.9375 362.108 7.05398 362.264 6.05966 362.264C5.09375 362.264 4.22727 362.114 3.46023 361.812C2.69886 361.506 2.09375 361.074 1.64489 360.517C1.2017 359.96 0.965909 359.301 0.9375 358.54ZM17.6399 362.29C16.8104 362.29 16.0604 362.136 15.3899 361.83C14.7195 361.517 14.1882 361.065 13.7962 360.474C13.4098 359.884 13.2166 359.159 13.2166 358.301C13.2166 357.562 13.3587 356.955 13.6428 356.477C13.9268 356 14.3104 355.622 14.7933 355.344C15.2763 355.065 15.8161 354.855 16.4126 354.713C17.0092 354.571 17.6172 354.463 18.2365 354.389C19.0206 354.298 19.657 354.224 20.1456 354.168C20.6342 354.105 20.9893 354.006 21.2109 353.869C21.4325 353.733 21.5433 353.511 21.5433 353.205V353.145C21.5433 352.401 21.3331 351.824 20.9126 351.415C20.4979 351.006 19.8786 350.801 19.0547 350.801C18.1967 350.801 17.5206 350.991 17.0263 351.372C16.5376 351.747 16.1996 352.165 16.0121 352.625L13.6172 352.08C13.9013 351.284 14.3161 350.642 14.8615 350.153C15.4126 349.659 16.0462 349.301 16.7621 349.08C17.478 348.852 18.2308 348.739 19.0206 348.739C19.5433 348.739 20.0973 348.801 20.6825 348.926C21.2734 349.045 21.8246 349.267 22.3359 349.591C22.853 349.915 23.2763 350.378 23.6058 350.98C23.9354 351.577 24.1001 352.352 24.1001 353.307V362H21.6115V360.21H21.5092C21.3445 360.54 21.0973 360.864 20.7678 361.182C20.4382 361.5 20.0149 361.764 19.4979 361.974C18.9808 362.185 18.3615 362.29 17.6399 362.29ZM18.1939 360.244C18.8984 360.244 19.5007 360.105 20.0007 359.827C20.5064 359.548 20.8899 359.185 21.1513 358.736C21.4183 358.281 21.5518 357.795 21.5518 357.278V355.591C21.4609 355.682 21.2848 355.767 21.0234 355.847C20.7678 355.92 20.4751 355.986 20.1456 356.043C19.8161 356.094 19.495 356.142 19.1825 356.188C18.87 356.227 18.6087 356.261 18.3984 356.29C17.9041 356.352 17.4524 356.457 17.0433 356.605C16.6399 356.753 16.3161 356.966 16.0717 357.244C15.8331 357.517 15.7138 357.881 15.7138 358.335C15.7138 358.966 15.9467 359.443 16.4126 359.767C16.8786 360.085 17.4723 360.244 18.1939 360.244ZM46.2528 359.801L46.0142 365.75H43.517V362H41.8892V359.801H46.2528ZM27.4943 348.909H29.9915V359.793H34.517V348.909H37.0142V359.793H41.5398V348.909H44.0369V362H27.4943V348.909ZM51.4368 358.429L57.2067 348.909H59.951V362H57.4538V352.472L51.7095 362H48.9396V348.909H51.4368V358.429ZM61.7536 351.108V348.909H72.799V351.108H68.5291V362H66.0405V351.108H61.7536ZM77.4119 353.409H81.2131C82.8153 353.409 84.0483 353.807 84.9119 354.602C85.7756 355.398 86.2074 356.423 86.2074 357.679C86.2074 358.497 86.0142 359.233 85.6278 359.886C85.2415 360.54 84.6761 361.057 83.9318 361.438C83.1875 361.812 82.2813 362 81.2131 362H75.4943V348.909H77.9915V359.801H81.2131C81.946 359.801 82.5483 359.611 83.0199 359.23C83.4915 358.844 83.7273 358.352 83.7273 357.756C83.7273 357.125 83.4915 356.611 83.0199 356.213C82.5483 355.81 81.946 355.608 81.2131 355.608H77.4119V353.409ZM88.0653 362V348.909H90.6136V362H88.0653ZM102.882 358.429L108.652 348.909H111.396V362H108.899V352.472L103.155 362H100.385V348.909H102.882V358.429ZM123.695 354.355V356.562H116.604V354.355H123.695ZM117.32 348.909V362H114.822V348.909H117.32ZM125.476 348.909V362H122.987V348.909H125.476ZM134.518 366.457V344.545H137.067V366.457H134.518ZM134.518 362.264C133.592 362.264 132.749 362.105 131.987 361.787C131.226 361.463 130.57 361.003 130.018 360.406C129.467 359.81 129.041 359.097 128.74 358.267C128.445 357.437 128.297 356.52 128.297 355.514C128.297 354.497 128.445 353.574 128.74 352.744C129.041 351.915 129.467 351.202 130.018 350.605C130.57 350.009 131.226 349.548 131.987 349.224C132.749 348.901 133.592 348.739 134.518 348.739H135.149V362.264H134.518ZM134.518 360.116H134.876V350.886H134.518C133.905 350.886 133.371 351.011 132.916 351.261C132.462 351.506 132.084 351.844 131.783 352.276C131.482 352.702 131.254 353.193 131.101 353.75C130.953 354.307 130.879 354.895 130.879 355.514C130.879 356.344 131.013 357.108 131.28 357.807C131.547 358.5 131.95 359.06 132.49 359.486C133.03 359.906 133.706 360.116 134.518 360.116ZM137.067 362.264H136.428V348.739H137.067C137.993 348.739 138.837 348.901 139.598 349.224C140.359 349.548 141.013 350.009 141.558 350.605C142.109 351.202 142.533 351.915 142.828 352.744C143.129 353.574 143.28 354.497 143.28 355.514C143.28 356.52 143.129 357.437 142.828 358.267C142.533 359.097 142.109 359.81 141.558 360.406C141.013 361.003 140.359 361.463 139.598 361.787C138.837 362.105 137.993 362.264 137.067 362.264ZM137.067 360.116C137.68 360.116 138.214 359.997 138.669 359.759C139.124 359.514 139.501 359.179 139.803 358.753C140.104 358.321 140.328 357.83 140.476 357.278C140.624 356.722 140.697 356.134 140.697 355.514C140.697 354.69 140.564 353.929 140.297 353.23C140.036 352.526 139.635 351.96 139.095 351.534C138.555 351.102 137.879 350.886 137.067 350.886H136.7V360.116H137.067ZM151.626 362.264C150.398 362.264 149.327 361.983 148.413 361.42C147.498 360.858 146.788 360.071 146.282 359.06C145.776 358.048 145.523 356.866 145.523 355.514C145.523 354.156 145.776 352.969 146.282 351.952C146.788 350.935 147.498 350.145 148.413 349.582C149.327 349.02 150.398 348.739 151.626 348.739C152.853 348.739 153.924 349.02 154.839 349.582C155.754 350.145 156.464 350.935 156.969 351.952C157.475 352.969 157.728 354.156 157.728 355.514C157.728 356.866 157.475 358.048 156.969 359.06C156.464 360.071 155.754 360.858 154.839 361.42C153.924 361.983 152.853 362.264 151.626 362.264ZM151.634 360.125C152.43 360.125 153.089 359.915 153.612 359.494C154.134 359.074 154.521 358.514 154.771 357.815C155.026 357.116 155.154 356.347 155.154 355.506C155.154 354.67 155.026 353.903 154.771 353.205C154.521 352.5 154.134 351.935 153.612 351.509C153.089 351.082 152.43 350.869 151.634 350.869C150.833 350.869 150.168 351.082 149.64 351.509C149.117 351.935 148.728 352.5 148.472 353.205C148.222 353.903 148.097 354.67 148.097 355.506C148.097 356.347 148.222 357.116 148.472 357.815C148.728 358.514 149.117 359.074 149.64 359.494C150.168 359.915 150.833 360.125 151.634 360.125ZM160.572 366.909V348.909H163.061V351.031H163.274C163.422 350.759 163.635 350.443 163.913 350.085C164.192 349.727 164.578 349.415 165.072 349.148C165.567 348.875 166.22 348.739 167.033 348.739C168.089 348.739 169.033 349.006 169.862 349.54C170.692 350.074 171.342 350.844 171.814 351.849C172.291 352.855 172.53 354.065 172.53 355.48C172.53 356.895 172.294 358.108 171.822 359.119C171.351 360.125 170.703 360.901 169.879 361.446C169.055 361.986 168.115 362.256 167.058 362.256C166.263 362.256 165.612 362.122 165.107 361.855C164.607 361.588 164.214 361.276 163.93 360.918C163.646 360.56 163.428 360.241 163.274 359.963H163.121V366.909H160.572ZM163.07 355.455C163.07 356.375 163.203 357.182 163.47 357.875C163.737 358.568 164.124 359.111 164.629 359.503C165.135 359.889 165.754 360.082 166.487 360.082C167.249 360.082 167.885 359.881 168.396 359.477C168.908 359.068 169.294 358.514 169.555 357.815C169.822 357.116 169.956 356.33 169.956 355.455C169.956 354.591 169.825 353.815 169.564 353.128C169.308 352.44 168.922 351.898 168.405 351.5C167.893 351.102 167.254 350.903 166.487 350.903C165.749 350.903 165.124 351.094 164.612 351.474C164.107 351.855 163.723 352.386 163.462 353.068C163.2 353.75 163.07 354.545 163.07 355.455ZM182.732 358.847L186.959 348.909H189.158L183.678 362H181.786L176.416 348.909H178.589L182.732 358.847ZM177.882 348.909V362H175.385V348.909H177.882ZM187.649 362V348.909H190.129V362H187.649ZM197.335 362.29C196.506 362.29 195.756 362.136 195.085 361.83C194.415 361.517 193.884 361.065 193.491 360.474C193.105 359.884 192.912 359.159 192.912 358.301C192.912 357.562 193.054 356.955 193.338 356.477C193.622 356 194.006 355.622 194.489 355.344C194.972 355.065 195.511 354.855 196.108 354.713C196.705 354.571 197.313 354.463 197.932 354.389C198.716 354.298 199.352 354.224 199.841 354.168C200.33 354.105 200.685 354.006 200.906 353.869C201.128 353.733 201.239 353.511 201.239 353.205V353.145C201.239 352.401 201.028 351.824 200.608 351.415C200.193 351.006 199.574 350.801 198.75 350.801C197.892 350.801 197.216 350.991 196.722 351.372C196.233 351.747 195.895 352.165 195.707 352.625L193.312 352.08C193.597 351.284 194.011 350.642 194.557 350.153C195.108 349.659 195.741 349.301 196.457 349.08C197.173 348.852 197.926 348.739 198.716 348.739C199.239 348.739 199.793 348.801 200.378 348.926C200.969 349.045 201.52 349.267 202.031 349.591C202.548 349.915 202.972 350.378 203.301 350.98C203.631 351.577 203.795 352.352 203.795 353.307V362H201.307V360.21H201.205C201.04 360.54 200.793 360.864 200.463 361.182C200.134 361.5 199.71 361.764 199.193 361.974C198.676 362.185 198.057 362.29 197.335 362.29ZM197.889 360.244C198.594 360.244 199.196 360.105 199.696 359.827C200.202 359.548 200.585 359.185 200.847 358.736C201.114 358.281 201.247 357.795 201.247 357.278V355.591C201.156 355.682 200.98 355.767 200.719 355.847C200.463 355.92 200.17 355.986 199.841 356.043C199.511 356.094 199.19 356.142 198.878 356.188C198.565 356.227 198.304 356.261 198.094 356.29C197.599 356.352 197.148 356.457 196.739 356.605C196.335 356.753 196.011 356.966 195.767 357.244C195.528 357.517 195.409 357.881 195.409 358.335C195.409 358.966 195.642 359.443 196.108 359.767C196.574 360.085 197.168 360.244 197.889 360.244ZM217.869 348.909V359.912H219.786V366.219H217.272V362H207.19V348.909H209.687V359.801H215.38V348.909H217.869ZM225.109 358.429L230.879 348.909H233.623V362H231.126V352.472L225.381 362H222.612V348.909H225.109V358.429ZM239.546 358.429L245.316 348.909H248.06V362H245.563V352.472L239.819 362H237.049V348.909H239.546V358.429ZM1.67898 391V389.091L7.58523 382.972C8.21591 382.307 8.7358 381.724 9.14489 381.224C9.55966 380.719 9.86932 380.239 10.0739 379.784C10.2784 379.33 10.3807 378.847 10.3807 378.335C10.3807 377.756 10.2443 377.256 9.97159 376.835C9.69886 376.409 9.3267 376.082 8.85511 375.855C8.38352 375.622 7.85227 375.506 7.26136 375.506C6.63636 375.506 6.09091 375.634 5.625 375.889C5.15909 376.145 4.80114 376.506 4.55114 376.972C4.30114 377.437 4.17614 377.983 4.17614 378.608H1.66193C1.66193 377.545 1.90625 376.616 2.39489 375.821C2.88352 375.026 3.55398 374.409 4.40625 373.972C5.25852 373.528 6.22727 373.307 7.3125 373.307C8.40909 373.307 9.375 373.526 10.2102 373.963C11.0511 374.395 11.7074 374.986 12.179 375.736C12.6506 376.48 12.8864 377.321 12.8864 378.259C12.8864 378.906 12.7642 379.54 12.5199 380.159C12.2813 380.778 11.8636 381.469 11.267 382.23C10.6705 382.986 9.84091 383.903 8.77841 384.983L5.30966 388.614V388.741H13.1676V391H1.67898ZM22.4744 391.29C21.1278 391.284 19.9773 390.929 19.0227 390.224C18.0682 389.52 17.3381 388.494 16.8324 387.148C16.3267 385.801 16.0739 384.179 16.0739 382.281C16.0739 380.389 16.3267 378.773 16.8324 377.432C17.3438 376.091 18.0767 375.068 19.0312 374.364C19.9915 373.659 21.1392 373.307 22.4744 373.307C23.8097 373.307 24.9545 373.662 25.9091 374.372C26.8636 375.077 27.5938 376.099 28.0994 377.44C28.6108 378.776 28.8665 380.389 28.8665 382.281C28.8665 384.185 28.6136 385.81 28.108 387.156C27.6023 388.497 26.8722 389.523 25.9176 390.233C24.9631 390.938 23.8153 391.29 22.4744 391.29ZM22.4744 389.014C23.6563 389.014 24.5795 388.438 25.2443 387.284C25.9148 386.131 26.25 384.463 26.25 382.281C26.25 380.832 26.0966 379.608 25.7898 378.608C25.4886 377.602 25.054 376.841 24.4858 376.324C23.9233 375.801 23.2528 375.54 22.4744 375.54C21.2983 375.54 20.375 376.119 19.7045 377.278C19.0341 378.437 18.696 380.105 18.6903 382.281C18.6903 383.736 18.8409 384.966 19.142 385.972C19.4489 386.972 19.8835 387.73 20.446 388.247C21.0085 388.759 21.6847 389.014 22.4744 389.014ZM31.8899 391V389.091L37.7962 382.972C38.4268 382.307 38.9467 381.724 39.3558 381.224C39.7706 380.719 40.0803 380.239 40.2848 379.784C40.4893 379.33 40.5916 378.847 40.5916 378.335C40.5916 377.756 40.4553 377.256 40.1825 376.835C39.9098 376.409 39.5376 376.082 39.0661 375.855C38.5945 375.622 38.0632 375.506 37.4723 375.506C36.8473 375.506 36.3018 375.634 35.8359 375.889C35.37 376.145 35.0121 376.506 34.7621 376.972C34.5121 377.437 34.3871 377.983 34.3871 378.608H31.8729C31.8729 377.545 32.1172 376.616 32.6058 375.821C33.0945 375.026 33.7649 374.409 34.6172 373.972C35.4695 373.528 36.4382 373.307 37.5234 373.307C38.62 373.307 39.5859 373.526 40.4212 373.963C41.2621 374.395 41.9183 374.986 42.3899 375.736C42.8615 376.48 43.0973 377.321 43.0973 378.259C43.0973 378.906 42.9751 379.54 42.7308 380.159C42.4922 380.778 42.0746 381.469 41.478 382.23C40.8814 382.986 40.0518 383.903 38.9893 384.983L35.5206 388.614V388.741H43.3786V391H31.8899ZM52.6854 391.29C51.3388 391.284 50.1882 390.929 49.2337 390.224C48.2791 389.52 47.549 388.494 47.0433 387.148C46.5376 385.801 46.2848 384.179 46.2848 382.281C46.2848 380.389 46.5376 378.773 47.0433 377.432C47.5547 376.091 48.2876 375.068 49.2422 374.364C50.2024 373.659 51.3501 373.307 52.6854 373.307C54.0206 373.307 55.1655 373.662 56.12 374.372C57.0746 375.077 57.8047 376.099 58.3104 377.44C58.8217 378.776 59.0774 380.389 59.0774 382.281C59.0774 384.185 58.8246 385.81 58.3189 387.156C57.8132 388.497 57.0831 389.523 56.1286 390.233C55.174 390.938 54.0263 391.29 52.6854 391.29ZM52.6854 389.014C53.8672 389.014 54.7905 388.438 55.4553 387.284C56.1257 386.131 56.4609 384.463 56.4609 382.281C56.4609 380.832 56.3075 379.608 56.0007 378.608C55.6996 377.602 55.2649 376.841 54.6967 376.324C54.1342 375.801 53.4638 375.54 52.6854 375.54C51.5092 375.54 50.5859 376.119 49.9155 377.278C49.245 378.437 48.907 380.105 48.9013 382.281C48.9013 383.736 49.0518 384.966 49.353 385.972C49.6598 386.972 50.0945 387.73 50.657 388.247C51.2195 388.759 51.8956 389.014 52.6854 389.014Z" fill="black"/>
</svg>
