<svg width="276" height="397" viewBox="0 0 276 397" fill="none" xmlns="http://www.w3.org/2000/svg">
<path fill-rule="evenodd" clip-rule="evenodd" d="M154.376 36.0669C151.956 36.8688 150.645 39.4783 151.448 41.8955C152.251 44.3124 154.864 45.6218 157.284 44.8199C169.667 40.7163 178.462 41.2935 196.654 44.0972C198.443 44.3728 200.229 43.5793 201.221 42.0674C202.213 40.5557 202.229 38.6043 201.262 37.0763C192.733 23.5986 183.946 15.7422 161.515 1.80551C159.35 0.460347 156.503 1.12284 155.156 3.28523C153.809 5.44762 154.472 8.29105 156.637 9.63622C172.767 19.6581 181.062 26.0792 187.292 33.4749C174.922 32.0122 165.873 32.2572 154.376 36.0669ZM184.171 55.7094C184.469 53.1802 186.764 51.3711 189.296 51.6686C201.326 53.082 209.627 56.6892 220.213 63.2482C217.705 53.9126 212.916 44.5867 202.554 28.6837C201.164 26.5492 201.769 23.6928 203.906 22.304C206.045 20.9149 208.903 21.5195 210.294 23.6541C224.702 45.7694 229.33 56.6038 231.337 72.4212C231.566 74.2144 230.724 75.9751 229.184 76.9248C227.644 77.8745 225.69 77.838 224.187 76.8317C208.898 66.5943 201.175 62.3502 188.217 60.8276C185.685 60.5301 183.873 58.2386 184.171 55.7094ZM216.7 79.249C214.575 77.842 211.71 78.4225 210.301 80.5451C208.894 82.6678 209.474 85.5293 211.599 86.9361C222.475 94.1351 227.448 101.403 236.467 117.43C237.354 119.006 239.08 119.919 240.885 119.765C242.687 119.612 244.235 118.42 244.842 116.717C250.196 101.697 250.962 89.9427 248.098 63.7136C247.821 61.1819 245.542 59.3535 243.007 59.6298C240.473 59.9059 238.641 62.182 238.918 64.7137C240.979 83.575 241.038 94.056 239.058 103.517C232.576 92.8931 226.798 85.9325 216.7 79.249ZM221.819 128.152C224.153 127.129 226.877 128.19 227.9 130.522C232.768 141.601 233.854 150.577 233.546 163.015C240.338 156.131 245.969 147.286 254.46 130.314C255.599 128.035 258.373 127.112 260.654 128.25C262.934 129.388 263.86 132.158 262.72 134.436C250.912 158.038 243.897 167.506 231.254 177.241C229.821 178.344 227.873 178.51 226.273 177.664C224.674 176.818 223.718 175.117 223.827 173.312C224.929 154.96 224.687 146.16 219.446 134.227C218.421 131.895 219.483 129.175 221.819 128.152ZM114.819 44.5081C113.059 42.6661 113.127 39.7473 114.971 37.9888C123.733 29.6349 131.808 25.5489 143.617 21.5881C134.818 17.5636 124.571 15.3014 105.699 13.1306C103.166 12.8392 101.349 10.5521 101.641 8.0222C101.933 5.49227 104.223 3.67756 106.756 3.96895C133 6.98769 144.306 10.337 157.786 18.8781C159.314 19.8464 160.135 21.6173 159.886 23.4075C159.636 25.1977 158.362 26.6773 156.628 27.1921C138.982 32.427 130.784 35.6614 121.347 44.6596C119.502 46.4181 116.58 46.3502 114.819 44.5081ZM82.2068 56.1145C81.2832 58.4883 82.4614 61.1603 84.838 62.0826C87.2147 63.005 89.89 61.8284 90.8136 59.4546C95.5388 47.3082 101.589 40.9065 115.346 28.6906C116.698 27.4895 117.224 25.61 116.689 23.883C116.155 22.1561 114.66 20.9002 112.864 20.6707C97.03 18.6463 85.3683 20.4027 60.3202 28.7863C57.9027 29.5954 56.5995 32.209 57.4098 34.6236C58.22 37.0383 60.8366 38.3398 63.2543 37.5306C81.2662 31.502 91.5065 29.2099 101.183 29.1273C92.1718 37.7163 86.5938 44.8377 82.2068 56.1145ZM63.2977 90.7677C60.7548 90.954 58.542 89.0459 58.3557 86.5061C57.47 74.4403 59.4464 65.6169 63.8929 53.9954C55.1888 58.2197 46.9258 64.681 33.25 77.8496C31.4145 79.6171 28.4917 79.5638 26.722 77.7305C24.9523 75.8971 25.0057 72.9781 26.8413 71.2105C45.8592 52.8978 55.636 46.3105 70.807 41.3488C72.527 40.7862 74.4173 41.2793 75.6422 42.6098C76.8674 43.9402 77.2009 45.8631 76.4956 47.5277C69.3228 64.4595 66.6107 72.8357 67.5645 85.8318C67.751 88.3718 65.8406 90.5816 63.2977 90.7677ZM47.7892 126.49C48.9736 128.745 51.7642 129.614 54.0222 128.431C56.2802 127.248 57.1505 124.461 55.966 122.206C49.9051 110.666 49.0503 101.904 48.8726 83.5198C48.8553 81.7122 47.782 80.0818 46.1277 79.349C44.4732 78.6163 42.5426 78.9166 41.1897 80.1172C29.2556 90.7067 22.9172 100.64 12.7823 125.005C11.804 127.357 12.9199 130.056 15.2745 131.033C17.6292 132.01 20.331 130.895 21.3093 128.544C28.5973 111.022 33.5973 101.807 39.8948 94.4682C40.454 106.897 42.1622 115.776 47.7892 126.49ZM65.4652 163.016C63.9431 165.06 61.0508 165.483 59.0052 163.963C49.2872 156.741 43.8967 149.477 38.0025 138.517C35.5094 147.856 34.9992 158.325 36.0293 177.27C36.1674 179.813 34.2156 181.987 31.6696 182.125C29.1235 182.263 26.9475 180.313 26.8093 177.77C25.3769 151.424 26.7819 139.73 32.9458 125.022C33.6446 123.354 35.2544 122.249 37.0633 122.193C38.8721 122.138 40.5467 123.143 41.3463 124.765C49.4795 141.258 54.0499 148.785 64.5173 156.564C66.5629 158.085 66.9872 160.973 65.4652 163.016ZM82.9508 194.963C85.4319 195.55 87.9198 194.017 88.5076 191.538C89.0954 189.061 87.5606 186.577 85.0795 185.988C72.3837 182.985 65.203 177.88 51.1962 165.95C49.8193 164.778 47.883 164.516 46.2438 165.283C44.6047 166.049 43.5648 167.701 43.584 169.508C43.7541 185.452 47.1 196.747 58.8589 220.372C59.9939 222.654 62.7649 223.584 65.0482 222.449C67.3315 221.315 68.2622 218.548 67.1272 216.269C58.6715 199.277 54.9901 189.463 53.5771 179.901C63.3344 187.635 71.164 192.173 82.9508 194.963ZM120.441 208.147C121.018 210.628 119.471 213.105 116.987 213.681C105.188 216.416 96.1545 215.828 83.972 213.233C89.4937 221.169 97.1602 228.328 112.297 239.791C114.328 241.329 114.727 244.223 113.186 246.252C111.645 248.281 108.749 248.677 106.717 247.139C85.6681 231.197 77.6437 222.565 70.395 208.36C69.5732 206.749 69.7693 204.807 70.8966 203.394C72.0238 201.98 73.8744 201.354 75.6299 201.793C93.4863 206.259 102.191 207.644 114.9 204.698C117.384 204.121 119.865 205.667 120.441 208.147ZM155.221 213.607C157.19 211.988 157.472 209.083 155.852 207.116C154.231 205.15 151.322 204.868 149.353 206.487C139.28 214.767 130.866 217.392 112.883 221.319C111.115 221.704 109.736 223.087 109.356 224.854C108.975 226.621 109.664 228.447 111.116 229.525C123.932 239.033 134.962 243.201 160.912 248.137C163.417 248.615 165.834 246.971 166.311 244.47C166.788 241.969 165.144 239.555 162.64 239.079C143.979 235.528 133.926 232.522 125.447 227.863C137.515 224.779 145.869 221.295 155.221 213.607ZM190.903 190.077C193.18 191.225 194.096 193.997 192.949 196.271C187.497 207.076 181.26 213.629 171.464 221.313C181.104 222.16 191.518 220.859 210.026 216.588C212.51 216.014 214.99 217.56 215.564 220.042C216.139 222.523 214.589 225 212.105 225.572C186.367 231.515 174.59 232.144 159.024 228.61C157.259 228.209 155.891 226.815 155.526 225.046C155.16 223.276 155.863 221.455 157.325 220.389C172.193 209.549 178.831 203.758 184.703 192.121C185.85 189.847 188.626 188.932 190.903 190.077ZM216.523 168.859C216.538 166.313 214.482 164.236 211.932 164.221C209.383 164.206 207.304 166.259 207.289 168.805C207.212 181.836 203.847 189.972 195.357 206.286C194.523 207.889 194.703 209.833 195.819 211.255C196.935 212.679 198.781 213.319 200.539 212.893C216.056 209.143 226.323 203.348 246.73 186.591C248.698 184.976 248.983 182.069 247.363 180.102C245.743 178.135 242.835 177.851 240.864 179.468C226.19 191.518 217.442 197.308 208.432 200.832C213.784 189.598 216.451 180.957 216.523 168.859Z" fill="#989494"/>
<path d="M141.808 170V155.792H102.64V143.76L130.672 80.4H146.672L119.536 141.712H141.808V121.104H156.784V141.712H165.488V155.792H156.784V170H141.808Z" fill="#3FABA9"/>
<path d="M12.2727 304L6.40909 296.176H4.55114V304H1.91761V286.545H4.55114V293.918H5.41193L12.0085 286.545H15.2216L8.24148 294.361L15.4858 304H12.2727ZM17.7209 308.909V290.909H20.2095V293.031H20.4226C20.5703 292.759 20.7834 292.443 21.0618 292.085C21.3402 291.727 21.7266 291.415 22.2209 291.148C22.7152 290.875 23.3686 290.739 24.1811 290.739C25.2379 290.739 26.1811 291.006 27.0107 291.54C27.8402 292.074 28.4908 292.844 28.9624 293.849C29.4396 294.855 29.6783 296.065 29.6783 297.48C29.6783 298.895 29.4425 300.108 28.9709 301.119C28.4993 302.125 27.8516 302.901 27.0277 303.446C26.2038 303.986 25.2635 304.256 24.2067 304.256C23.4112 304.256 22.7607 304.122 22.255 303.855C21.755 303.588 21.3629 303.276 21.0788 302.918C20.7947 302.56 20.576 302.241 20.4226 301.963H20.2692V308.909H17.7209ZM20.218 297.455C20.218 298.375 20.3516 299.182 20.6186 299.875C20.8857 300.568 21.272 301.111 21.7777 301.503C22.2834 301.889 22.9027 302.082 23.6357 302.082C24.397 302.082 25.0334 301.881 25.5447 301.477C26.0561 301.068 26.4425 300.514 26.7038 299.815C26.9709 299.116 27.1044 298.33 27.1044 297.455C27.1044 296.591 26.9737 295.815 26.7124 295.128C26.4567 294.44 26.0703 293.898 25.5533 293.5C25.0419 293.102 24.4027 292.903 23.6357 292.903C22.897 292.903 22.272 293.094 21.7607 293.474C21.255 293.855 20.8714 294.386 20.6101 295.068C20.3487 295.75 20.218 296.545 20.218 297.455ZM33.6989 308.909C33.3182 308.909 32.9716 308.878 32.6591 308.815C32.3466 308.759 32.1136 308.696 31.9602 308.628L32.5739 306.54C33.0398 306.665 33.4545 306.719 33.8182 306.702C34.1818 306.685 34.5028 306.548 34.7812 306.293C35.0653 306.037 35.3153 305.619 35.5312 305.04L35.8466 304.17L31.0568 290.909H33.7841L37.0994 301.068H37.2358L40.5511 290.909H43.2869L37.892 305.747C37.642 306.429 37.3239 307.006 36.9375 307.477C36.5511 307.955 36.0909 308.313 35.5568 308.551C35.0227 308.79 34.4034 308.909 33.6989 308.909ZM45.6818 304V290.909H56.3608V304H53.8636V293.108H48.1619V304H45.6818ZM68.6399 296.355V298.562H61.549V296.355H68.6399ZM62.2649 290.909V304H59.7678V290.909H62.2649ZM70.4212 290.909V304H67.9325V290.909H70.4212ZM79.4723 304.264C78.1825 304.264 77.0717 303.989 76.1399 303.438C75.2138 302.881 74.4979 302.099 73.9922 301.094C73.4922 300.082 73.2422 298.898 73.2422 297.54C73.2422 296.199 73.4922 295.017 73.9922 293.994C74.4979 292.972 75.2024 292.173 76.1058 291.599C77.0149 291.026 78.0774 290.739 79.2933 290.739C80.032 290.739 80.7479 290.861 81.4411 291.105C82.1342 291.349 82.7564 291.733 83.3075 292.256C83.8587 292.778 84.2933 293.457 84.6115 294.293C84.9297 295.122 85.0888 296.131 85.0888 297.318V298.222H74.6825V296.312H82.5916C82.5916 295.642 82.4553 295.048 82.1825 294.531C81.9098 294.009 81.5263 293.597 81.032 293.295C80.5433 292.994 79.9695 292.844 79.3104 292.844C78.5945 292.844 77.9695 293.02 77.4354 293.372C76.907 293.719 76.4979 294.173 76.2081 294.736C75.924 295.293 75.782 295.898 75.782 296.551V298.043C75.782 298.918 75.9354 299.662 76.2422 300.276C76.5547 300.889 76.9893 301.358 77.5462 301.682C78.103 302 78.7536 302.159 79.4979 302.159C79.9808 302.159 80.4212 302.091 80.8189 301.955C81.2166 301.812 81.5604 301.602 81.8501 301.324C82.1399 301.045 82.3615 300.702 82.5149 300.293L84.9268 300.727C84.7337 301.437 84.3871 302.06 83.8871 302.594C83.3928 303.122 82.7706 303.534 82.0206 303.83C81.2763 304.119 80.4268 304.264 79.4723 304.264ZM90.4134 300.429L96.1832 290.909H98.9276V304H96.4304V294.472L90.6861 304H87.9162V290.909H90.4134V300.429ZM95.0923 286.477H97.1889C97.1889 287.437 96.848 288.219 96.1662 288.821C95.4901 289.418 94.5753 289.716 93.4219 289.716C92.2741 289.716 91.3622 289.418 90.6861 288.821C90.0099 288.219 89.6719 287.437 89.6719 286.477H91.7599C91.7599 286.903 91.8849 287.281 92.1349 287.611C92.3849 287.935 92.8139 288.097 93.4219 288.097C94.0185 288.097 94.4446 287.935 94.7003 287.611C94.9616 287.287 95.0923 286.909 95.0923 286.477ZM102.354 290.909H104.851V301.793H109.376V290.909H111.874V301.793H116.399V290.909H118.896V304H102.354V290.909ZM124.796 300.429L130.566 290.909H133.31V304H130.813V294.472L125.069 304H122.299V290.909H124.796V300.429ZM142.379 304.264C141.089 304.264 139.978 303.989 139.046 303.438C138.12 302.881 137.404 302.099 136.898 301.094C136.398 300.082 136.148 298.898 136.148 297.54C136.148 296.199 136.398 295.017 136.898 293.994C137.404 292.972 138.109 292.173 139.012 291.599C139.921 291.026 140.984 290.739 142.2 290.739C142.938 290.739 143.654 290.861 144.347 291.105C145.04 291.349 145.663 291.733 146.214 292.256C146.765 292.778 147.2 293.457 147.518 294.293C147.836 295.122 147.995 296.131 147.995 297.318V298.222H137.589V296.312H145.498C145.498 295.642 145.362 295.048 145.089 294.531C144.816 294.009 144.433 293.597 143.938 293.295C143.45 292.994 142.876 292.844 142.217 292.844C141.501 292.844 140.876 293.02 140.342 293.372C139.813 293.719 139.404 294.173 139.114 294.736C138.83 295.293 138.688 295.898 138.688 296.551V298.043C138.688 298.918 138.842 299.662 139.148 300.276C139.461 300.889 139.896 301.358 140.452 301.682C141.009 302 141.66 302.159 142.404 302.159C142.887 302.159 143.327 302.091 143.725 301.955C144.123 301.812 144.467 301.602 144.756 301.324C145.046 301.045 145.268 300.702 145.421 300.293L147.833 300.727C147.64 301.437 147.293 302.06 146.793 302.594C146.299 303.122 145.677 303.534 144.927 303.83C144.183 304.119 143.333 304.264 142.379 304.264ZM1.71307 333V319.909H12.392V333H9.89489V322.108H4.19318V333H1.71307ZM21.3132 333.264C20.0859 333.264 19.0149 332.983 18.1001 332.42C17.1854 331.858 16.4751 331.071 15.9695 330.06C15.4638 329.048 15.2109 327.866 15.2109 326.514C15.2109 325.156 15.4638 323.969 15.9695 322.952C16.4751 321.935 17.1854 321.145 18.1001 320.582C19.0149 320.02 20.0859 319.739 21.3132 319.739C22.5405 319.739 23.6115 320.02 24.5263 320.582C25.4411 321.145 26.1513 321.935 26.657 322.952C27.1626 323.969 27.4155 325.156 27.4155 326.514C27.4155 327.866 27.1626 329.048 26.657 330.06C26.1513 331.071 25.4411 331.858 24.5263 332.42C23.6115 332.983 22.5405 333.264 21.3132 333.264ZM21.3217 331.125C22.1172 331.125 22.7763 330.915 23.299 330.494C23.8217 330.074 24.2081 329.514 24.4581 328.815C24.7138 328.116 24.8416 327.347 24.8416 326.506C24.8416 325.67 24.7138 324.903 24.4581 324.205C24.2081 323.5 23.8217 322.935 23.299 322.509C22.7763 322.082 22.1172 321.869 21.3217 321.869C20.5206 321.869 19.8558 322.082 19.3274 322.509C18.8047 322.935 18.4155 323.5 18.1598 324.205C17.9098 324.903 17.7848 325.67 17.7848 326.506C17.7848 327.347 17.9098 328.116 18.1598 328.815C18.4155 329.514 18.8047 330.074 19.3274 330.494C19.8558 330.915 20.5206 331.125 21.3217 331.125ZM35.7741 333.264C34.5071 333.264 33.4162 332.977 32.5014 332.403C31.5923 331.824 30.8935 331.026 30.4048 330.009C29.9162 328.991 29.6719 327.827 29.6719 326.514C29.6719 325.185 29.9219 324.011 30.4219 322.994C30.9219 321.972 31.6264 321.173 32.5355 320.599C33.4446 320.026 34.5156 319.739 35.7486 319.739C36.7429 319.739 37.6293 319.923 38.4077 320.293C39.1861 320.656 39.8139 321.168 40.2912 321.827C40.7741 322.486 41.0611 323.256 41.152 324.136H38.6719C38.5355 323.523 38.223 322.994 37.7344 322.551C37.2514 322.108 36.6037 321.886 35.7912 321.886C35.081 321.886 34.4588 322.074 33.9247 322.449C33.3963 322.818 32.9844 323.347 32.6889 324.034C32.3935 324.716 32.2457 325.523 32.2457 326.455C32.2457 327.409 32.3906 328.233 32.6804 328.926C32.9702 329.619 33.3793 330.156 33.9077 330.537C34.4418 330.918 35.0696 331.108 35.7912 331.108C36.2741 331.108 36.7116 331.02 37.1037 330.844C37.5014 330.662 37.8338 330.403 38.1009 330.068C38.3736 329.733 38.5639 329.33 38.6719 328.858H41.152C41.0611 329.705 40.7855 330.46 40.3253 331.125C39.8651 331.79 39.2486 332.312 38.4759 332.693C37.7088 333.074 36.8082 333.264 35.7741 333.264ZM42.8864 322.108V319.909H53.9318V322.108H49.6619V333H47.1733V322.108H42.8864ZM59.8274 333.29C58.9979 333.29 58.2479 333.136 57.5774 332.83C56.907 332.517 56.3757 332.065 55.9837 331.474C55.5973 330.884 55.4041 330.159 55.4041 329.301C55.4041 328.562 55.5462 327.955 55.8303 327.477C56.1143 327 56.4979 326.622 56.9808 326.344C57.4638 326.065 58.0036 325.855 58.6001 325.713C59.1967 325.571 59.8047 325.463 60.424 325.389C61.2081 325.298 61.8445 325.224 62.3331 325.168C62.8217 325.105 63.1768 325.006 63.3984 324.869C63.62 324.733 63.7308 324.511 63.7308 324.205V324.145C63.7308 323.401 63.5206 322.824 63.1001 322.415C62.6854 322.006 62.0661 321.801 61.2422 321.801C60.3842 321.801 59.7081 321.991 59.2138 322.372C58.7251 322.747 58.3871 323.165 58.1996 323.625L55.8047 323.08C56.0888 322.284 56.5036 321.642 57.049 321.153C57.6001 320.659 58.2337 320.301 58.9496 320.08C59.6655 319.852 60.4183 319.739 61.2081 319.739C61.7308 319.739 62.2848 319.801 62.87 319.926C63.4609 320.045 64.0121 320.267 64.5234 320.591C65.0405 320.915 65.4638 321.378 65.7933 321.98C66.1229 322.577 66.2876 323.352 66.2876 324.307V333H63.799V331.21H63.6967C63.532 331.54 63.2848 331.864 62.9553 332.182C62.6257 332.5 62.2024 332.764 61.6854 332.974C61.1683 333.185 60.549 333.29 59.8274 333.29ZM60.3814 331.244C61.0859 331.244 61.6882 331.105 62.1882 330.827C62.6939 330.548 63.0774 330.185 63.3388 329.736C63.6058 329.281 63.7393 328.795 63.7393 328.278V326.591C63.6484 326.682 63.4723 326.767 63.2109 326.847C62.9553 326.92 62.6626 326.986 62.3331 327.043C62.0036 327.094 61.6825 327.142 61.37 327.188C61.0575 327.227 60.7962 327.261 60.5859 327.29C60.0916 327.352 59.6399 327.457 59.2308 327.605C58.8274 327.753 58.5036 327.966 58.2592 328.244C58.0206 328.517 57.9013 328.881 57.9013 329.335C57.9013 329.966 58.1342 330.443 58.6001 330.767C59.0661 331.085 59.6598 331.244 60.3814 331.244ZM69.6818 333V319.909H75.1108C76.5881 319.909 77.7585 320.224 78.6222 320.855C79.4858 321.48 79.9176 322.33 79.9176 323.403C79.9176 324.17 79.6733 324.778 79.1847 325.227C78.696 325.676 78.0483 325.977 77.2415 326.131C77.8267 326.199 78.3636 326.375 78.8523 326.659C79.3409 326.937 79.733 327.312 80.0284 327.784C80.3295 328.256 80.4801 328.818 80.4801 329.472C80.4801 330.165 80.3011 330.778 79.9432 331.312C79.5852 331.841 79.0653 332.256 78.3835 332.557C77.7074 332.852 76.892 333 75.9375 333H69.6818ZM72.0767 330.869H75.9375C76.5682 330.869 77.0625 330.719 77.4205 330.418C77.7784 330.116 77.9574 329.707 77.9574 329.19C77.9574 328.582 77.7784 328.105 77.4205 327.759C77.0625 327.406 76.5682 327.23 75.9375 327.23H72.0767V330.869ZM72.0767 325.364H75.1364C75.6136 325.364 76.0227 325.295 76.3636 325.159C76.7102 325.023 76.9744 324.83 77.1562 324.58C77.3438 324.324 77.4375 324.023 77.4375 323.676C77.4375 323.17 77.2301 322.776 76.8153 322.491C76.4006 322.207 75.8324 322.065 75.1108 322.065H72.0767V325.364ZM102.034 330.801L101.795 336.75H99.2983V333H97.6705V330.801H102.034ZM83.2756 319.909H85.7727V330.793H90.2983V319.909H92.7955V330.793H97.321V319.909H99.8182V333H83.2756V319.909ZM107.218 329.429L112.988 319.909H115.732V333H113.235V323.472L107.491 333H104.721V319.909H107.218V329.429ZM119.158 333V319.909H121.707V325.398H122.934L127.255 319.909H130.408L125.337 326.276L130.468 333H127.306L123.36 327.767H121.707V333H119.158ZM134.945 329.429L140.714 319.909H143.459V333H140.962V323.472L135.217 333H132.447V319.909H134.945V329.429ZM156.075 315.545V333H153.441V315.545H156.075ZM159.049 317.812V315.545H172.558V317.812H167.112V333H164.487V317.812H159.049ZM180.411 336.776V330.793H181.477C181.749 330.543 181.979 330.244 182.167 329.898C182.36 329.551 182.522 329.139 182.653 328.662C182.789 328.185 182.903 327.628 182.994 326.991C183.085 326.349 183.164 325.616 183.232 324.793L183.641 319.909H192.539V330.793H194.55V336.776H192.062V333H182.934V336.776H180.411ZM184.204 330.793H190.05V322.091H185.925L185.653 324.793C185.522 326.168 185.357 327.361 185.158 328.372C184.96 329.378 184.641 330.185 184.204 330.793ZM196.01 333L196.001 330.793H196.47C196.834 330.793 197.138 330.716 197.382 330.562C197.632 330.403 197.837 330.136 197.996 329.761C198.155 329.386 198.277 328.869 198.362 328.21C198.447 327.545 198.51 326.71 198.55 325.705L198.78 319.909H207.916V333H205.419V322.108H201.141L200.936 326.557C200.885 327.636 200.774 328.58 200.604 329.386C200.439 330.193 200.197 330.866 199.879 331.406C199.561 331.94 199.152 332.341 198.652 332.608C198.152 332.869 197.544 333 196.828 333H196.01ZM219.121 333V322.082H215.985C215.241 322.082 214.661 322.256 214.246 322.602C213.832 322.949 213.624 323.403 213.624 323.966C213.624 324.523 213.815 324.972 214.195 325.312C214.582 325.648 215.121 325.815 215.815 325.815H219.863V327.878H215.815C214.849 327.878 214.013 327.719 213.309 327.401C212.61 327.077 212.07 326.619 211.69 326.028C211.315 325.437 211.127 324.739 211.127 323.932C211.127 323.108 211.32 322.398 211.707 321.801C212.099 321.199 212.658 320.733 213.386 320.403C214.119 320.074 214.985 319.909 215.985 319.909H221.516V333H219.121ZM210.531 333L214.221 326.386H216.829L213.138 333H210.531ZM0.980114 351.108V348.909H12.0256V351.108H7.75568V362H5.26705V351.108H0.980114ZM14.7209 366.909V348.909H17.2095V351.031H17.4226C17.5703 350.759 17.7834 350.443 18.0618 350.085C18.3402 349.727 18.7266 349.415 19.2209 349.148C19.7152 348.875 20.3686 348.739 21.1811 348.739C22.2379 348.739 23.1811 349.006 24.0107 349.54C24.8402 350.074 25.4908 350.844 25.9624 351.849C26.4396 352.855 26.6783 354.065 26.6783 355.48C26.6783 356.895 26.4425 358.108 25.9709 359.119C25.4993 360.125 24.8516 360.901 24.0277 361.446C23.2038 361.986 22.2635 362.256 21.2067 362.256C20.4112 362.256 19.7607 362.122 19.255 361.855C18.755 361.588 18.3629 361.276 18.0788 360.918C17.7947 360.56 17.576 360.241 17.4226 359.963H17.2692V366.909H14.7209ZM17.218 355.455C17.218 356.375 17.3516 357.182 17.6186 357.875C17.8857 358.568 18.272 359.111 18.7777 359.503C19.2834 359.889 19.9027 360.082 20.6357 360.082C21.397 360.082 22.0334 359.881 22.5447 359.477C23.0561 359.068 23.4425 358.514 23.7038 357.815C23.9709 357.116 24.1044 356.33 24.1044 355.455C24.1044 354.591 23.9737 353.815 23.7124 353.128C23.4567 352.44 23.0703 351.898 22.5533 351.5C22.0419 351.102 21.4027 350.903 20.6357 350.903C19.897 350.903 19.272 351.094 18.7607 351.474C18.255 351.855 17.8714 352.386 17.6101 353.068C17.3487 353.75 17.218 354.545 17.218 355.455ZM33.343 362.29C32.5135 362.29 31.7635 362.136 31.093 361.83C30.4226 361.517 29.8913 361.065 29.4993 360.474C29.1129 359.884 28.9197 359.159 28.9197 358.301C28.9197 357.562 29.0618 356.955 29.3459 356.477C29.63 356 30.0135 355.622 30.4964 355.344C30.9794 355.065 31.5192 354.855 32.1158 354.713C32.7124 354.571 33.3203 354.463 33.9396 354.389C34.7237 354.298 35.3601 354.224 35.8487 354.168C36.3374 354.105 36.6925 354.006 36.9141 353.869C37.1357 353.733 37.2464 353.511 37.2464 353.205V353.145C37.2464 352.401 37.0362 351.824 36.6158 351.415C36.201 351.006 35.5817 350.801 34.7578 350.801C33.8999 350.801 33.2237 350.991 32.7294 351.372C32.2408 351.747 31.9027 352.165 31.7152 352.625L29.3203 352.08C29.6044 351.284 30.0192 350.642 30.5646 350.153C31.1158 349.659 31.7493 349.301 32.4652 349.08C33.1811 348.852 33.9339 348.739 34.7237 348.739C35.2464 348.739 35.8004 348.801 36.3857 348.926C36.9766 349.045 37.5277 349.267 38.0391 349.591C38.5561 349.915 38.9794 350.378 39.3089 350.98C39.6385 351.577 39.8033 352.352 39.8033 353.307V362H37.3146V360.21H37.2124C37.0476 360.54 36.8004 360.864 36.4709 361.182C36.1413 361.5 35.718 361.764 35.201 361.974C34.6839 362.185 34.0646 362.29 33.343 362.29ZM33.897 360.244C34.6016 360.244 35.2038 360.105 35.7038 359.827C36.2095 359.548 36.593 359.185 36.8544 358.736C37.1214 358.281 37.255 357.795 37.255 357.278V355.591C37.1641 355.682 36.9879 355.767 36.7266 355.847C36.4709 355.92 36.1783 355.986 35.8487 356.043C35.5192 356.094 35.1982 356.142 34.8857 356.188C34.5732 356.227 34.3118 356.261 34.1016 356.29C33.6072 356.352 33.1555 356.457 32.7464 356.605C32.343 356.753 32.0192 356.966 31.7749 357.244C31.5362 357.517 31.4169 357.881 31.4169 358.335C31.4169 358.966 31.6499 359.443 32.1158 359.767C32.5817 360.085 33.1754 360.244 33.897 360.244ZM52.0696 354.355V356.562H44.9787V354.355H52.0696ZM45.6946 348.909V362H43.1974V348.909H45.6946ZM53.8509 348.909V362H51.3622V348.909H53.8509ZM62.7741 362.264C61.5071 362.264 60.4162 361.977 59.5014 361.403C58.5923 360.824 57.8935 360.026 57.4048 359.009C56.9162 357.991 56.6719 356.827 56.6719 355.514C56.6719 354.185 56.9219 353.011 57.4219 351.994C57.9219 350.972 58.6264 350.173 59.5355 349.599C60.4446 349.026 61.5156 348.739 62.7486 348.739C63.7429 348.739 64.6293 348.923 65.4077 349.293C66.1861 349.656 66.8139 350.168 67.2912 350.827C67.7741 351.486 68.0611 352.256 68.152 353.136H65.6719C65.5355 352.523 65.223 351.994 64.7344 351.551C64.2514 351.108 63.6037 350.886 62.7912 350.886C62.081 350.886 61.4588 351.074 60.9247 351.449C60.3963 351.818 59.9844 352.347 59.6889 353.034C59.3935 353.716 59.2457 354.523 59.2457 355.455C59.2457 356.409 59.3906 357.233 59.6804 357.926C59.9702 358.619 60.3793 359.156 60.9077 359.537C61.4418 359.918 62.0696 360.108 62.7912 360.108C63.2741 360.108 63.7116 360.02 64.1037 359.844C64.5014 359.662 64.8338 359.403 65.1009 359.068C65.3736 358.733 65.5639 358.33 65.6719 357.858H68.152C68.0611 358.705 67.7855 359.46 67.3253 360.125C66.8651 360.79 66.2486 361.312 65.4759 361.693C64.7088 362.074 63.8082 362.264 62.7741 362.264ZM70.8771 362V348.909H81.5561V362H79.0589V351.108H73.3572V362H70.8771ZM90.4773 362.264C89.25 362.264 88.179 361.983 87.2642 361.42C86.3494 360.858 85.6392 360.071 85.1335 359.06C84.6278 358.048 84.375 356.866 84.375 355.514C84.375 354.156 84.6278 352.969 85.1335 351.952C85.6392 350.935 86.3494 350.145 87.2642 349.582C88.179 349.02 89.25 348.739 90.4773 348.739C91.7045 348.739 92.7756 349.02 93.6903 349.582C94.6051 350.145 95.3153 350.935 95.821 351.952C96.3267 352.969 96.5795 354.156 96.5795 355.514C96.5795 356.866 96.3267 358.048 95.821 359.06C95.3153 360.071 94.6051 360.858 93.6903 361.42C92.7756 361.983 91.7045 362.264 90.4773 362.264ZM90.4858 360.125C91.2813 360.125 91.9403 359.915 92.4631 359.494C92.9858 359.074 93.3722 358.514 93.6222 357.815C93.8778 357.116 94.0057 356.347 94.0057 355.506C94.0057 354.67 93.8778 353.903 93.6222 353.205C93.3722 352.5 92.9858 351.935 92.4631 351.509C91.9403 351.082 91.2813 350.869 90.4858 350.869C89.6847 350.869 89.0199 351.082 88.4915 351.509C87.9688 351.935 87.5795 352.5 87.3239 353.205C87.0739 353.903 86.9489 354.67 86.9489 355.506C86.9489 356.347 87.0739 357.116 87.3239 357.815C87.5795 358.514 87.9688 359.074 88.4915 359.494C89.0199 359.915 89.6847 360.125 90.4858 360.125ZM99.424 366.909V348.909H101.913V351.031H102.126C102.273 350.759 102.487 350.443 102.765 350.085C103.043 349.727 103.43 349.415 103.924 349.148C104.418 348.875 105.072 348.739 105.884 348.739C106.941 348.739 107.884 349.006 108.714 349.54C109.543 350.074 110.194 350.844 110.665 351.849C111.143 352.855 111.381 354.065 111.381 355.48C111.381 356.895 111.146 358.108 110.674 359.119C110.202 360.125 109.555 360.901 108.731 361.446C107.907 361.986 106.967 362.256 105.91 362.256C105.114 362.256 104.464 362.122 103.958 361.855C103.458 361.588 103.066 361.276 102.782 360.918C102.498 360.56 102.279 360.241 102.126 359.963H101.972V366.909H99.424ZM101.921 355.455C101.921 356.375 102.055 357.182 102.322 357.875C102.589 358.568 102.975 359.111 103.481 359.503C103.987 359.889 104.606 360.082 105.339 360.082C106.1 360.082 106.737 359.881 107.248 359.477C107.759 359.068 108.146 358.514 108.407 357.815C108.674 357.116 108.808 356.33 108.808 355.455C108.808 354.591 108.677 353.815 108.415 353.128C108.16 352.44 107.773 351.898 107.256 351.5C106.745 351.102 106.106 350.903 105.339 350.903C104.6 350.903 103.975 351.094 103.464 351.474C102.958 351.855 102.575 352.386 102.313 353.068C102.052 353.75 101.921 354.545 101.921 355.455ZM112.66 351.108V348.909H123.705V351.108H119.435V362H116.947V351.108H112.66ZM135.273 354.355V356.562H128.182V354.355H135.273ZM128.898 348.909V362H126.401V348.909H128.898ZM137.054 348.909V362H134.565V348.909H137.054ZM142.381 353.409H146.182C147.784 353.409 149.017 353.807 149.881 354.602C150.744 355.398 151.176 356.423 151.176 357.679C151.176 358.497 150.983 359.233 150.597 359.886C150.21 360.54 149.645 361.057 148.901 361.438C148.156 361.812 147.25 362 146.182 362H140.463V348.909H142.96V359.801H146.182C146.915 359.801 147.517 359.611 147.989 359.23C148.46 358.844 148.696 358.352 148.696 357.756C148.696 357.125 148.46 356.611 147.989 356.213C147.517 355.81 146.915 355.608 146.182 355.608H142.381V353.409ZM153.034 362V348.909H155.582V362H153.034ZM161.013 348.909L163.903 354.006L166.817 348.909H169.604L165.522 355.455L169.638 362H166.852L163.903 357.108L160.962 362H158.167L162.241 355.455L158.218 348.909H161.013ZM1.71307 391V377.909H4.26136V383.398H5.48864L9.80966 377.909H12.9631L7.89205 384.276L13.0227 391H9.8608L5.91477 385.767H4.26136V391H1.71307ZM19.9773 391.264C18.75 391.264 17.679 390.983 16.7642 390.42C15.8494 389.858 15.1392 389.071 14.6335 388.06C14.1278 387.048 13.875 385.866 13.875 384.514C13.875 383.156 14.1278 381.969 14.6335 380.952C15.1392 379.935 15.8494 379.145 16.7642 378.582C17.679 378.02 18.75 377.739 19.9773 377.739C21.2045 377.739 22.2756 378.02 23.1903 378.582C24.1051 379.145 24.8153 379.935 25.321 380.952C25.8267 381.969 26.0795 383.156 26.0795 384.514C26.0795 385.866 25.8267 387.048 25.321 388.06C24.8153 389.071 24.1051 389.858 23.1903 390.42C22.2756 390.983 21.2045 391.264 19.9773 391.264ZM19.9858 389.125C20.7813 389.125 21.4403 388.915 21.9631 388.494C22.4858 388.074 22.8722 387.514 23.1222 386.815C23.3778 386.116 23.5057 385.347 23.5057 384.506C23.5057 383.67 23.3778 382.903 23.1222 382.205C22.8722 381.5 22.4858 380.935 21.9631 380.509C21.4403 380.082 20.7813 379.869 19.9858 379.869C19.1847 379.869 18.5199 380.082 17.9915 380.509C17.4688 380.935 17.0795 381.5 16.8239 382.205C16.5739 382.903 16.4489 383.67 16.4489 384.506C16.4489 385.347 16.5739 386.116 16.8239 386.815C17.0795 387.514 17.4688 388.074 17.9915 388.494C18.5199 388.915 19.1847 389.125 19.9858 389.125ZM36.2706 387.847L40.4979 377.909H42.6967L37.2166 391H35.3246L29.9553 377.909H32.1286L36.2706 387.847ZM31.4212 377.909V391H28.924V377.909H31.4212ZM41.1882 391V377.909H43.6683V391H41.1882ZM47.0646 391V377.909H57.7436V391H55.2464V380.108H49.5447V391H47.0646ZM64.9602 391.29C64.1307 391.29 63.3807 391.136 62.7102 390.83C62.0398 390.517 61.5085 390.065 61.1165 389.474C60.7301 388.884 60.5369 388.159 60.5369 387.301C60.5369 386.562 60.679 385.955 60.9631 385.477C61.2472 385 61.6307 384.622 62.1136 384.344C62.5966 384.065 63.1364 383.855 63.733 383.713C64.3295 383.571 64.9375 383.463 65.5568 383.389C66.3409 383.298 66.9773 383.224 67.4659 383.168C67.9545 383.105 68.3097 383.006 68.5312 382.869C68.7528 382.733 68.8636 382.511 68.8636 382.205V382.145C68.8636 381.401 68.6534 380.824 68.233 380.415C67.8182 380.006 67.1989 379.801 66.375 379.801C65.517 379.801 64.8409 379.991 64.3466 380.372C63.858 380.747 63.5199 381.165 63.3324 381.625L60.9375 381.08C61.2216 380.284 61.6364 379.642 62.1818 379.153C62.733 378.659 63.3665 378.301 64.0824 378.08C64.7983 377.852 65.5511 377.739 66.3409 377.739C66.8636 377.739 67.4176 377.801 68.0028 377.926C68.5938 378.045 69.1449 378.267 69.6562 378.591C70.1733 378.915 70.5966 379.378 70.9261 379.98C71.2557 380.577 71.4205 381.352 71.4205 382.307V391H68.9318V389.21H68.8295C68.6648 389.54 68.4176 389.864 68.0881 390.182C67.7585 390.5 67.3352 390.764 66.8182 390.974C66.3011 391.185 65.6818 391.29 64.9602 391.29ZM65.5142 389.244C66.2188 389.244 66.821 389.105 67.321 388.827C67.8267 388.548 68.2102 388.185 68.4716 387.736C68.7386 387.281 68.8722 386.795 68.8722 386.278V384.591C68.7813 384.682 68.6051 384.767 68.3438 384.847C68.0881 384.92 67.7955 384.986 67.4659 385.043C67.1364 385.094 66.8153 385.142 66.5028 385.188C66.1903 385.227 65.929 385.261 65.7188 385.29C65.2244 385.352 64.7727 385.457 64.3636 385.605C63.9602 385.753 63.6364 385.966 63.392 386.244C63.1534 386.517 63.0341 386.881 63.0341 387.335C63.0341 387.966 63.267 388.443 63.733 388.767C64.1989 389.085 64.7926 389.244 65.5142 389.244ZM83.6868 383.355V385.562H76.5959V383.355H83.6868ZM77.3118 377.909V391H74.8146V377.909H77.3118ZM85.468 377.909V391H82.9794V377.909H85.468ZM91.3743 387.429L97.1442 377.909H99.8885V391H97.3913V381.472L91.647 391H88.8771V377.909H91.3743V387.429ZM105.812 387.429L111.582 377.909H114.326V391H111.829V381.472L106.085 391H103.315V377.909H105.812V387.429ZM110.491 373.477H112.587C112.587 374.437 112.246 375.219 111.565 375.821C110.888 376.418 109.974 376.716 108.82 376.716C107.673 376.716 106.761 376.418 106.085 375.821C105.408 375.219 105.07 374.437 105.07 373.477H107.158C107.158 373.903 107.283 374.281 107.533 374.611C107.783 374.935 108.212 375.097 108.82 375.097C109.417 375.097 109.843 374.935 110.099 374.611C110.36 374.287 110.491 373.909 110.491 373.477ZM124.07 391V389.091L129.976 382.972C130.607 382.307 131.126 381.724 131.536 381.224C131.95 380.719 132.26 380.239 132.464 379.784C132.669 379.33 132.771 378.847 132.771 378.335C132.771 377.756 132.635 377.256 132.362 376.835C132.089 376.409 131.717 376.082 131.246 375.855C130.774 375.622 130.243 375.506 129.652 375.506C129.027 375.506 128.482 375.634 128.016 375.889C127.55 376.145 127.192 376.506 126.942 376.972C126.692 377.437 126.567 377.983 126.567 378.608H124.053C124.053 377.545 124.297 376.616 124.786 375.821C125.274 375.026 125.945 374.409 126.797 373.972C127.649 373.528 128.618 373.307 129.703 373.307C130.8 373.307 131.766 373.526 132.601 373.963C133.442 374.395 134.098 374.986 134.57 375.736C135.041 376.48 135.277 377.321 135.277 378.259C135.277 378.906 135.155 379.54 134.911 380.159C134.672 380.778 134.254 381.469 133.658 382.23C133.061 382.986 132.232 383.903 131.169 384.983L127.7 388.614V388.741H135.558V391H124.07ZM144.865 391.29C143.518 391.284 142.368 390.929 141.413 390.224C140.459 389.52 139.729 388.494 139.223 387.148C138.717 385.801 138.464 384.179 138.464 382.281C138.464 380.389 138.717 378.773 139.223 377.432C139.734 376.091 140.467 375.068 141.422 374.364C142.382 373.659 143.53 373.307 144.865 373.307C146.2 373.307 147.345 373.662 148.3 374.372C149.254 375.077 149.984 376.099 150.49 377.44C151.001 378.776 151.257 380.389 151.257 382.281C151.257 384.185 151.004 385.81 150.499 387.156C149.993 388.497 149.263 389.523 148.308 390.233C147.354 390.938 146.206 391.29 144.865 391.29ZM144.865 389.014C146.047 389.014 146.97 388.438 147.635 387.284C148.305 386.131 148.641 384.463 148.641 382.281C148.641 380.832 148.487 379.608 148.18 378.608C147.879 377.602 147.445 376.841 146.876 376.324C146.314 375.801 145.643 375.54 144.865 375.54C143.689 375.54 142.766 376.119 142.095 377.278C141.425 378.437 141.087 380.105 141.081 382.281C141.081 383.736 141.232 384.966 141.533 385.972C141.839 386.972 142.274 387.73 142.837 388.247C143.399 388.759 144.075 389.014 144.865 389.014ZM154.281 391V389.091L160.187 382.972C160.817 382.307 161.337 381.724 161.746 381.224C162.161 380.719 162.471 380.239 162.675 379.784C162.88 379.33 162.982 378.847 162.982 378.335C162.982 377.756 162.846 377.256 162.573 376.835C162.3 376.409 161.928 376.082 161.457 375.855C160.985 375.622 160.454 375.506 159.863 375.506C159.238 375.506 158.692 375.634 158.227 375.889C157.761 376.145 157.403 376.506 157.153 376.972C156.903 377.437 156.778 377.983 156.778 378.608H154.263C154.263 377.545 154.508 376.616 154.996 375.821C155.485 375.026 156.156 374.409 157.008 373.972C157.86 373.528 158.829 373.307 159.914 373.307C161.011 373.307 161.977 373.526 162.812 373.963C163.653 374.395 164.309 374.986 164.781 375.736C165.252 376.48 165.488 377.321 165.488 378.259C165.488 378.906 165.366 379.54 165.121 380.159C164.883 380.778 164.465 381.469 163.869 382.23C163.272 382.986 162.442 383.903 161.38 384.983L157.911 388.614V388.741H165.769V391H154.281ZM175.076 391.29C173.729 391.284 172.579 390.929 171.624 390.224C170.67 389.52 169.94 388.494 169.434 387.148C168.928 385.801 168.675 384.179 168.675 382.281C168.675 380.389 168.928 378.773 169.434 377.432C169.945 376.091 170.678 375.068 171.633 374.364C172.593 373.659 173.741 373.307 175.076 373.307C176.411 373.307 177.556 373.662 178.511 374.372C179.465 375.077 180.195 376.099 180.701 377.44C181.212 378.776 181.468 380.389 181.468 382.281C181.468 384.185 181.215 385.81 180.71 387.156C180.204 388.497 179.474 389.523 178.519 390.233C177.565 390.938 176.417 391.29 175.076 391.29ZM175.076 389.014C176.258 389.014 177.181 388.438 177.846 387.284C178.516 386.131 178.852 384.463 178.852 382.281C178.852 380.832 178.698 379.608 178.391 378.608C178.09 377.602 177.656 376.841 177.087 376.324C176.525 375.801 175.854 375.54 175.076 375.54C173.9 375.54 172.977 376.119 172.306 377.278C171.636 378.437 171.298 380.105 171.292 382.281C171.292 383.736 171.442 384.966 171.744 385.972C172.05 386.972 172.485 387.73 173.048 388.247C173.61 388.759 174.286 389.014 175.076 389.014Z" fill="black"/>
</svg>
