<svg width="84" height="84" viewBox="0 0 84 84" fill="none" xmlns="http://www.w3.org/2000/svg">
<path d="M64.1392 19.6452L13.5672 39.1508C10.1156 40.5358 10.1361 42.4609 12.9381 43.3193L25.5509 47.256L30.3768 62.0521C30.9634 63.6715 30.6742 64.3138 32.3749 64.3138C33.6871 64.3138 34.2694 63.7153 35.0004 63.0013C35.4651 62.5467 38.225 59.8634 41.3062 56.8675L54.426 66.5608C56.8402 67.8927 58.5834 67.2026 59.1846 64.3185L67.7967 23.7354C68.6784 20.2004 66.449 18.5969 64.1392 19.6452ZM27.5302 46.3517L55.9595 28.4154C57.3788 27.5546 58.68 28.0174 57.6117 28.9658L33.2687 50.9292L32.3208 61.0386L27.5302 46.3517Z" fill="white"/>
</svg>
