<svg width="84" height="84" viewBox="0 0 84 84" fill="none" xmlns="http://www.w3.org/2000/svg">
<path d="M72.7999 27.0906C73.2551 25.6205 72.7999 24.5005 70.6301 24.5005H63.5599C61.74 24.5005 60.9349 25.4455 60.48 26.4955C60.48 26.4955 56.8751 35.2806 51.765 41.0204C50.085 42.6655 49.35 43.1905 48.4399 43.1905C47.985 43.1905 47.25 42.6655 47.25 41.1606V27.0906C47.25 25.3055 46.83 24.5005 45.3251 24.5005H34.1599C33.0401 24.5005 32.3749 25.3405 32.3749 26.1455C32.3749 27.8256 34.9999 28.2456 35.175 33.0404V43.4706C35.175 45.7806 34.755 46.2006 33.8801 46.2006C31.5 46.2006 25.62 37.3454 22.155 27.2654C21.455 25.3055 20.79 24.5005 18.97 24.5005H11.865C9.87001 24.5005 9.45001 25.4455 9.45001 26.4955C9.45001 28.3855 11.865 37.6956 20.65 50.0155C26.4949 58.4504 34.755 63.0006 42.2801 63.0006C46.7951 63.0006 47.355 61.9855 47.355 60.2354V53.8656C47.355 51.8706 47.775 51.4506 49.2101 51.4506C50.2601 51.4506 52.0451 51.9756 56.2451 56.0005C61.0751 60.8305 61.845 63.0006 64.575 63.0006H71.6449C73.6751 63.0006 74.6899 61.9855 74.13 59.9905C73.5 57.9955 71.19 55.0904 68.145 51.6606C66.4999 49.7354 64.0151 47.6354 63.2449 46.5505C62.1949 45.2204 62.5099 44.6256 63.2449 43.4005C63.2449 43.4005 71.8901 31.2554 72.7999 27.0906Z" fill="white"/>
</svg>
